<?xml version="1.0" encoding="UTF-8" standalone="no"?><svg xmlns="http://www.w3.org/2000/svg" xmlns:xlink="http://www.w3.org/1999/xlink" contentStyleType="text/css" height="1393.75px" preserveAspectRatio="none" style="width:2837px;height:1393px;background-color:#141414" version="1.1" viewBox="0 0 2837 1393" width="2837.5px" zoomAndPan="magnify"><defs><linearGradient id="g1cwnrzzzepdbw0" x1="50%" x2="50%" y1="0%" y2="100%"><stop offset="0%" stop-color="#003666"/><stop offset="100%" stop-color="#003666"/></linearGradient></defs><g><rect fill="#292929" height="1381.543" rx="10.4167" ry="10.4167" style="stroke:#959595;stroke-width:.5208333333333334" width="1951.0417" x="659.8958" y="6.25"/><text fill="#85C6FF" font-family="&quot;Graphik LCG&quot;" font-size="12.5" lengthAdjust="spacing" textLength="92.7083" x="1589.0625" y="27.5594">IsSettled Services</text><line style="stroke:#666;stroke-width:.5208333333333334;stroke-dasharray:5,5" x1="361.4583" x2="361.4583" y1="90.8203" y2="1336.6536"/><line style="stroke:#666;stroke-width:.5208333333333334;stroke-dasharray:5,5" x1="502.0833" x2="502.0833" y1="90.8203" y2="1336.6536"/><line style="stroke:#666;stroke-width:.5208333333333334;stroke-dasharray:5,5" x1="800.5208" x2="800.5208" y1="90.8203" y2="1336.6536"/><line style="stroke:#666;stroke-width:.5208333333333334;stroke-dasharray:5,5" x1="1081.7708" x2="1081.7708" y1="90.8203" y2="1336.6536"/><line style="stroke:#666;stroke-width:.5208333333333334;stroke-dasharray:5,5" x1="1334.8958" x2="1334.8958" y1="90.8203" y2="1336.6536"/><line style="stroke:#666;stroke-width:.5208333333333334;stroke-dasharray:5,5" x1="1517.1875" x2="1517.1875" y1="90.8203" y2="1336.6536"/><line style="stroke:#666;stroke-width:.5208333333333334;stroke-dasharray:5,5" x1="1656.7708" x2="1656.7708" y1="90.8203" y2="1336.6536"/><line style="stroke:#666;stroke-width:.5208333333333334;stroke-dasharray:5,5" x1="1860.9375" x2="1860.9375" y1="90.8203" y2="1336.6536"/><line style="stroke:#666;stroke-width:.5208333333333334;stroke-dasharray:5,5" x1="2142.1875" x2="2142.1875" y1="90.8203" y2="1336.6536"/><line style="stroke:#666;stroke-width:.5208333333333334;stroke-dasharray:5,5" x1="2451.5625" x2="2451.5625" y1="90.8203" y2="1336.6536"/><line style="stroke:#666;stroke-width:.5208333333333334;stroke-dasharray:5,5" x1="2760.9375" x2="2760.9375" y1="90.8203" y2="1336.6536"/><rect fill="#3D3D3D" height="46.9727" rx="10.4167" ry="10.4167" style="stroke:#292929;stroke-width:.5208333333333334" width="50" x="336.4583" y="42.806"/><text fill="#F5F5F5" font-family="&quot;Graphik LCG&quot;" font-size="12.5" lengthAdjust="spacing" textLength="18.75" x="352.0833" y="71.4071">SFI</text><rect fill="#3D3D3D" height="46.9727" rx="10.4167" ry="10.4167" style="stroke:#292929;stroke-width:.5208333333333334" width="50" x="336.4583" y="1335.612"/><text fill="#F5F5F5" font-family="&quot;Graphik LCG&quot;" font-size="12.5" lengthAdjust="spacing" textLength="18.75" x="352.0833" y="1364.2131">SFI</text><rect fill="#3D3D3D" height="46.9727" rx="10.4167" ry="10.4167" style="stroke:#292929;stroke-width:.5208333333333334" width="86.4583" x="459.375" y="42.806"/><text fill="#F5F5F5" font-family="&quot;Graphik LCG&quot;" font-size="12.5" lengthAdjust="spacing" textLength="55.2083" x="475" y="71.4071">Tokenizer</text><rect fill="#3D3D3D" height="46.9727" rx="10.4167" ry="10.4167" style="stroke:#292929;stroke-width:.5208333333333334" width="86.4583" x="459.375" y="1335.612"/><text fill="#F5F5F5" font-family="&quot;Graphik LCG&quot;" font-size="12.5" lengthAdjust="spacing" textLength="55.2083" x="475" y="1364.2131">Tokenizer</text><rect fill="#3D3D3D" height="46.9727" rx="10.4167" ry="10.4167" style="stroke:#292929;stroke-width:.5208333333333334" width="211.4583" x="695.3125" y="42.806"/><text fill="#F5F5F5" font-family="&quot;Graphik LCG&quot;" font-size="12.5" lengthAdjust="spacing" textLength="180.2083" x="710.9375" y="71.4071">SFI_Payment_Initiation_Service</text><rect fill="#3D3D3D" height="46.9727" rx="10.4167" ry="10.4167" style="stroke:#292929;stroke-width:.5208333333333334" width="211.4583" x="695.3125" y="1335.612"/><text fill="#F5F5F5" font-family="&quot;Graphik LCG&quot;" font-size="12.5" lengthAdjust="spacing" textLength="180.2083" x="710.9375" y="1364.2131">SFI_Payment_Initiation_Service</text><rect fill="#3D3D3D" height="46.9727" rx="10.4167" ry="10.4167" style="stroke:#292929;stroke-width:.5208333333333334" width="205.2083" x="979.6875" y="42.806"/><text fill="#F5F5F5" font-family="&quot;Graphik LCG&quot;" font-size="12.5" lengthAdjust="spacing" textLength="173.9583" x="995.3125" y="71.4071">SFI_Digital_Signature_Service</text><rect fill="#3D3D3D" height="46.9727" rx="10.4167" ry="10.4167" style="stroke:#292929;stroke-width:.5208333333333334" width="205.2083" x="979.6875" y="1335.612"/><text fill="#F5F5F5" font-family="&quot;Graphik LCG&quot;" font-size="12.5" lengthAdjust="spacing" textLength="173.9583" x="995.3125" y="1364.2131">SFI_Digital_Signature_Service</text><rect fill="#3D3D3D" height="46.9727" rx="10.4167" ry="10.4167" style="stroke:#292929;stroke-width:.5208333333333334" width="155.2083" x="1257.8125" y="42.806"/><text fill="#F5F5F5" font-family="&quot;Graphik LCG&quot;" font-size="12.5" lengthAdjust="spacing" textLength="123.9583" x="1273.4375" y="71.4071">SFI_Gateway_Service</text><rect fill="#3D3D3D" height="46.9727" rx="10.4167" ry="10.4167" style="stroke:#292929;stroke-width:.5208333333333334" width="155.2083" x="1257.8125" y="1335.612"/><text fill="#F5F5F5" font-family="&quot;Graphik LCG&quot;" font-size="12.5" lengthAdjust="spacing" textLength="123.9583" x="1273.4375" y="1364.2131">SFI_Gateway_Service</text><rect fill="#3D3D3D" height="46.9727" rx="10.4167" ry="10.4167" style="stroke:#292929;stroke-width:.5208333333333334" width="63.5417" x="1485.9375" y="42.806"/><text fill="#F5F5F5" font-family="&quot;Graphik LCG&quot;" font-size="12.5" lengthAdjust="spacing" textLength="32.2917" x="1501.5625" y="71.4071">Kafka</text><rect fill="#3D3D3D" height="46.9727" rx="10.4167" ry="10.4167" style="stroke:#292929;stroke-width:.5208333333333334" width="63.5417" x="1485.9375" y="1335.612"/><text fill="#F5F5F5" font-family="&quot;Graphik LCG&quot;" font-size="12.5" lengthAdjust="spacing" textLength="32.2917" x="1501.5625" y="1364.2131">Kafka</text><rect fill="#3D3D3D" height="46.9727" rx="10.4167" ry="10.4167" style="stroke:#292929;stroke-width:.5208333333333334" width="69.7917" x="1622.3958" y="42.806"/><text fill="#F5F5F5" font-family="&quot;Graphik LCG&quot;" font-size="12.5" lengthAdjust="spacing" textLength="38.5417" x="1638.0208" y="71.4071">IsSettled</text><rect fill="#3D3D3D" height="46.9727" rx="10.4167" ry="10.4167" style="stroke:#292929;stroke-width:.5208333333333334" width="69.7917" x="1622.3958" y="1335.612"/><text fill="#F5F5F5" font-family="&quot;Graphik LCG&quot;" font-size="12.5" lengthAdjust="spacing" textLength="38.5417" x="1638.0208" y="1364.2131">IsSettled</text><rect fill="#3D3D3D" height="46.9727" rx="10.4167" ry="10.4167" style="stroke:#292929;stroke-width:.5208333333333334" width="191.6667" x="1765.1042" y="42.806"/><text fill="#F5F5F5" font-family="&quot;Graphik LCG&quot;" font-size="12.5" lengthAdjust="spacing" textLength="160.4167" x="1780.7292" y="71.4071">Tokenizer_Gateway_Service</text><rect fill="#3D3D3D" height="46.9727" rx="10.4167" ry="10.4167" style="stroke:#292929;stroke-width:.5208333333333334" width="191.6667" x="1765.1042" y="1335.612"/><text fill="#F5F5F5" font-family="&quot;Graphik LCG&quot;" font-size="12.5" lengthAdjust="spacing" textLength="160.4167" x="1780.7292" y="1364.2131">Tokenizer_Gateway_Service</text><rect fill="#3D3D3D" height="46.9727" rx="10.4167" ry="10.4167" style="stroke:#292929;stroke-width:.5208333333333334" width="225" x="2029.6875" y="42.806"/><text fill="#F5F5F5" font-family="&quot;Graphik LCG&quot;" font-size="12.5" lengthAdjust="spacing" textLength="193.75" x="2045.3125" y="71.4071">IsSettled_Digital_Signature_Service</text><rect fill="#3D3D3D" height="46.9727" rx="10.4167" ry="10.4167" style="stroke:#292929;stroke-width:.5208333333333334" width="225" x="2029.6875" y="1335.612"/><text fill="#F5F5F5" font-family="&quot;Graphik LCG&quot;" font-size="12.5" lengthAdjust="spacing" textLength="193.75" x="2045.3125" y="1364.2131">IsSettled_Digital_Signature_Service</text><rect fill="#3D3D3D" height="46.9727" rx="10.4167" ry="10.4167" style="stroke:#292929;stroke-width:.5208333333333334" width="247.9167" x="2327.6042" y="42.806"/><text fill="#F5F5F5" font-family="&quot;Graphik LCG&quot;" font-size="12.5" lengthAdjust="spacing" textLength="216.6667" x="2343.2292" y="71.4071">Tokenizer_Payment_Initiation_Service</text><rect fill="#3D3D3D" height="46.9727" rx="10.4167" ry="10.4167" style="stroke:#292929;stroke-width:.5208333333333334" width="247.9167" x="2327.6042" y="1335.612"/><text fill="#F5F5F5" font-family="&quot;Graphik LCG&quot;" font-size="12.5" lengthAdjust="spacing" textLength="216.6667" x="2343.2292" y="1364.2131">Tokenizer_Payment_Initiation_Service</text><rect fill="#3D3D3D" height="46.9727" rx="10.4167" ry="10.4167" style="stroke:#292929;stroke-width:.5208333333333334" width="141.6667" x="2690.1042" y="42.806"/><text fill="#F5F5F5" font-family="&quot;Graphik LCG&quot;" font-size="12.5" lengthAdjust="spacing" textLength="110.4167" x="2705.7292" y="71.4071">Distributed_Ledger</text><rect fill="#3D3D3D" height="46.9727" rx="10.4167" ry="10.4167" style="stroke:#292929;stroke-width:.5208333333333334" width="141.6667" x="2690.1042" y="1335.612"/><text fill="#F5F5F5" font-family="&quot;Graphik LCG&quot;" font-size="12.5" lengthAdjust="spacing" textLength="110.4167" x="2705.7292" y="1364.2131">Distributed_Ledger</text><path d="M231.25,116.862 L231.25,138.737 A10.4167,10.4167 0 0 0 241.6667,149.1536 L481.25,149.1536 A10.4167,10.4167 0 0 0 491.6667,138.737 L491.6667,116.862 L481.25,106.4453 L241.6667,106.4453 A10.4167,10.4167 0 0 0 231.25,116.862 " fill="url(#g1cwnrzzzepdbw0)" style="stroke:#181818;stroke-width:.5208333333333334"/><path d="M481.25,106.4453 L481.25,111.6536 A5.2083,5.2083 0 0 0 486.4583,116.862 L491.6667,116.862 L481.25,106.4453 " fill="url(#g1cwnrzzzepdbw0)" style="stroke:#181818;stroke-width:.5208333333333334"/><text fill="#85C6FF" font-family="&quot;Graphik LCG&quot;" font-size="12.5" lengthAdjust="spacing" textLength="221.875" x="245.8333" y="132.9631">Creates a pacs.009 financial message</text><line style="stroke:#666;stroke-width:1.0416666666666667" x1="317.7083" x2="361.4583" y1="193.099" y2="193.099"/><line style="stroke:#666;stroke-width:1.0416666666666667" x1="317.7083" x2="317.7083" y1="193.099" y2="206.6406"/><line style="stroke:#666;stroke-width:1.0416666666666667" x1="317.7083" x2="360.4167" y1="206.6406" y2="206.6406"/><polygon fill="#666666" points="352.0833,202.474,362.5,206.6406,352.0833,210.8073,356.25,206.6406" style="stroke:#666;stroke-width:1.0416666666666667"/><text fill="#F5F5F5" font-family="&quot;Graphik LCG&quot;" font-size="12.5" lengthAdjust="spacing" textLength="330.2083" x="22.9167" y="179.9357">Creating a pacs.009 financial message on the server side</text><path d="M227.0833,230.599 L227.0833,252.474 A10.4167,10.4167 0 0 0 237.5,262.8906 L485.4167,262.8906 A10.4167,10.4167 0 0 0 495.8333,252.474 L495.8333,230.599 L485.4167,220.1823 L237.5,220.1823 A10.4167,10.4167 0 0 0 227.0833,230.599 " fill="url(#g1cwnrzzzepdbw0)" style="stroke:#181818;stroke-width:.5208333333333334"/><path d="M485.4167,220.1823 L485.4167,225.3906 A5.2083,5.2083 0 0 0 490.625,230.599 L495.8333,230.599 L485.4167,220.1823 " fill="url(#g1cwnrzzzepdbw0)" style="stroke:#181818;stroke-width:.5208333333333334"/><text fill="#85C6FF" font-family="&quot;Graphik LCG&quot;" font-size="12.5" lengthAdjust="spacing" textLength="230.2083" x="241.6667" y="246.7">Generates the “unsignedPayload” object</text><line style="stroke:#666;stroke-width:1.0416666666666667" x1="317.7083" x2="361.4583" y1="306.8359" y2="306.8359"/><line style="stroke:#666;stroke-width:1.0416666666666667" x1="317.7083" x2="317.7083" y1="306.8359" y2="320.3776"/><line style="stroke:#666;stroke-width:1.0416666666666667" x1="317.7083" x2="360.4167" y1="320.3776" y2="320.3776"/><polygon fill="#666666" points="352.0833,316.2109,362.5,320.3776,352.0833,324.5443,356.25,320.3776" style="stroke:#666;stroke-width:1.0416666666666667"/><text fill="#F5F5F5" font-family="&quot;Graphik LCG&quot;" font-size="12.5" lengthAdjust="spacing" textLength="215.625" x="137.5" y="293.6727">Payload generation on the server side</text><path d="M144.7917,344.3359 L144.7917,366.2109 A10.4167,10.4167 0 0 0 155.2083,376.6276 L566.6667,376.6276 A10.4167,10.4167 0 0 0 577.0833,366.2109 L577.0833,344.3359 L566.6667,333.9193 L155.2083,333.9193 A10.4167,10.4167 0 0 0 144.7917,344.3359 " fill="url(#g1cwnrzzzepdbw0)" style="stroke:#181818;stroke-width:.5208333333333334"/><path d="M566.6667,333.9193 L566.6667,339.1276 A5.2083,5.2083 0 0 0 571.875,344.3359 L577.0833,344.3359 L566.6667,333.9193 " fill="url(#g1cwnrzzzepdbw0)" style="stroke:#181818;stroke-width:.5208333333333334"/><text fill="#85C6FF" font-family="&quot;Graphik LCG&quot;" font-size="12.5" lengthAdjust="spacing" textLength="393.75" x="159.375" y="360.437">Sends a pacs.009 financial message in base64 encoding for signing</text><polygon fill="#666666" points="1069.7917,447.8516,1080.2083,452.0182,1069.7917,456.1849,1073.9583,452.0182" style="stroke:#666;stroke-width:1.0416666666666667"/><line style="stroke:#666;stroke-width:1.0416666666666667" x1="361.4583" x2="1076.0417" y1="452.0182" y2="452.0182"/><text fill="#F5F5F5" font-family="&quot;Graphik LCG&quot;" font-size="12.5" lengthAdjust="spacing" textLength="122.9167" x="658.8542" y="407.4097">POST /sign/message</text><text fill="#F5F5F5" font-family="&quot;Graphik LCG&quot;" font-size="12.5" lengthAdjust="spacing" textLength="3.125" x="720.3125" y="423.1323"> </text><text fill="#F5F5F5" font-family="&quot;Graphik LCG&quot;" font-size="12.5" lengthAdjust="spacing" textLength="263.5417" x="590.1042" y="438.855">Payload: unsignedPayload {base64 pacs.009}</text><path d="M218.75,475.9766 L218.75,497.8516 A10.4167,10.4167 0 0 0 229.1667,508.2682 L492.7083,508.2682 A10.4167,10.4167 0 0 0 503.125,497.8516 L503.125,475.9766 L492.7083,465.5599 L229.1667,465.5599 A10.4167,10.4167 0 0 0 218.75,475.9766 " fill="url(#g1cwnrzzzepdbw0)" style="stroke:#181818;stroke-width:.5208333333333334"/><path d="M492.7083,465.5599 L492.7083,470.7682 A5.2083,5.2083 0 0 0 497.9167,475.9766 L503.125,475.9766 L492.7083,465.5599 " fill="url(#g1cwnrzzzepdbw0)" style="stroke:#181818;stroke-width:.5208333333333334"/><text fill="#85C6FF" font-family="&quot;Graphik LCG&quot;" font-size="12.5" lengthAdjust="spacing" textLength="245.8333" x="233.3333" y="492.0776">Gets a signed pacs.009 financial message</text><polygon fill="#666666" points="372.9167,579.4922,362.5,583.6589,372.9167,587.8255,368.75,583.6589" style="stroke:#666;stroke-width:1.0416666666666667"/><line style="stroke:#666;stroke-width:1.0416666666666667" x1="366.6667" x2="1081.25" y1="583.6589" y2="583.6589"/><text fill="#F5F5F5" font-family="&quot;Graphik LCG&quot;" font-size="12.5" lengthAdjust="spacing" textLength="60.4167" x="690.1042" y="539.0503">Response</text><text fill="#F5F5F5" font-family="&quot;Graphik LCG&quot;" font-size="12.5" lengthAdjust="spacing" textLength="3.125" x="720.3125" y="554.7729"> </text><text fill="#F5F5F5" font-family="&quot;Graphik LCG&quot;" font-size="12.5" lengthAdjust="spacing" textLength="302.0833" x="570.8333" y="570.4956">Payload: signedMessagePayload {base64 pacs.009}</text><path d="M183.3333,607.6172 L183.3333,629.4922 A10.4167,10.4167 0 0 0 193.75,639.9089 L528.125,639.9089 A10.4167,10.4167 0 0 0 538.5417,629.4922 L538.5417,607.6172 L528.125,597.2005 L193.75,597.2005 A10.4167,10.4167 0 0 0 183.3333,607.6172 " fill="url(#g1cwnrzzzepdbw0)" style="stroke:#181818;stroke-width:.5208333333333334"/><path d="M528.125,597.2005 L528.125,602.4089 A5.2083,5.2083 0 0 0 533.3333,607.6172 L538.5417,607.6172 L528.125,597.2005 " fill="url(#g1cwnrzzzepdbw0)" style="stroke:#181818;stroke-width:.5208333333333334"/><text fill="#85C6FF" font-family="&quot;Graphik LCG&quot;" font-size="12.5" lengthAdjust="spacing" textLength="316.6667" x="197.9167" y="623.7183">Generates a DSA Redeem Request “financialMessage”</text><line style="stroke:#666;stroke-width:1.0416666666666667" x1="317.7083" x2="361.4583" y1="683.8542" y2="683.8542"/><line style="stroke:#666;stroke-width:1.0416666666666667" x1="317.7083" x2="317.7083" y1="683.8542" y2="697.3958"/><line style="stroke:#666;stroke-width:1.0416666666666667" x1="317.7083" x2="360.4167" y1="697.3958" y2="697.3958"/><polygon fill="#666666" points="352.0833,693.2292,362.5,697.3958,352.0833,701.5625,356.25,697.3958" style="stroke:#666;stroke-width:1.0416666666666667"/><text fill="#F5F5F5" font-family="&quot;Graphik LCG&quot;" font-size="12.5" lengthAdjust="spacing" textLength="215.625" x="137.5" y="670.6909">Payload generation on the server side</text><path d="M251.0417,721.3542 L251.0417,743.2292 A10.4167,10.4167 0 0 0 261.4583,753.6458 L460.4167,753.6458 A10.4167,10.4167 0 0 0 470.8333,743.2292 L470.8333,721.3542 L460.4167,710.9375 L261.4583,710.9375 A10.4167,10.4167 0 0 0 251.0417,721.3542 " fill="url(#g1cwnrzzzepdbw0)" style="stroke:#181818;stroke-width:.5208333333333334"/><path d="M460.4167,710.9375 L460.4167,716.1458 A5.2083,5.2083 0 0 0 465.625,721.3542 L470.8333,721.3542 L460.4167,710.9375 " fill="url(#g1cwnrzzzepdbw0)" style="stroke:#181818;stroke-width:.5208333333333334"/><text fill="#85C6FF" font-family="&quot;Graphik LCG&quot;" font-size="12.5" lengthAdjust="spacing" textLength="181.25" x="265.625" y="737.4552">Sends a DSA Redeem Request</text><polygon fill="#666666" points="788.5417,824.8698,798.9583,829.0365,788.5417,833.2031,792.7083,829.0365" style="stroke:#666;stroke-width:1.0416666666666667"/><line style="stroke:#666;stroke-width:1.0416666666666667" x1="361.4583" x2="794.7917" y1="829.0365" y2="829.0365"/><text fill="#F5F5F5" font-family="&quot;Graphik LCG&quot;" font-size="12.5" lengthAdjust="spacing" textLength="202.0833" x="478.6458" y="784.4279">POST /payments/message/redeem</text><text fill="#F5F5F5" font-family="&quot;Graphik LCG&quot;" font-size="12.5" lengthAdjust="spacing" textLength="3.125" x="579.6875" y="800.1506"> </text><text fill="#F5F5F5" font-family="&quot;Graphik LCG&quot;" font-size="12.5" lengthAdjust="spacing" textLength="397.9167" x="382.2917" y="815.8732">Payload: financialMessage {signedMessagePayload + message type}</text><polygon fill="#666666" points="1505.2083,871.8424,1515.625,876.0091,1505.2083,880.1758,1509.375,876.0091" style="stroke:#666;stroke-width:1.0416666666666667"/><line style="stroke:#666;stroke-width:1.0416666666666667" x1="801.0417" x2="1511.4583" y1="876.0091" y2="876.0091"/><text fill="#F5F5F5" font-family="&quot;Graphik LCG&quot;" font-size="12.5" lengthAdjust="spacing" textLength="144.7917" x="1086.9792" y="862.8459">Add message to the topic</text><path d="M245.8333,899.9674 L245.8333,921.8424 A10.4167,10.4167 0 0 0 256.25,932.2591 L466.6667,932.2591 A10.4167,10.4167 0 0 0 477.0833,921.8424 L477.0833,899.9674 L466.6667,889.5508 L256.25,889.5508 A10.4167,10.4167 0 0 0 245.8333,899.9674 " fill="url(#g1cwnrzzzepdbw0)" style="stroke:#181818;stroke-width:.5208333333333334"/><path d="M466.6667,889.5508 L466.6667,894.7591 A5.2083,5.2083 0 0 0 471.875,899.9674 L477.0833,899.9674 L466.6667,889.5508 " fill="url(#g1cwnrzzzepdbw0)" style="stroke:#181818;stroke-width:.5208333333333334"/><text fill="#85C6FF" font-family="&quot;Graphik LCG&quot;" font-size="12.5" lengthAdjust="spacing" textLength="192.7083" x="260.4167" y="916.0685">Gets pacs.002 financial message</text><polygon fill="#666666" points="372.9167,1003.4831,362.5,1007.6497,372.9167,1011.8164,368.75,1007.6497" style="stroke:#666;stroke-width:1.0416666666666667"/><line style="stroke:#666;stroke-width:1.0416666666666667" x1="366.6667" x2="800" y1="1007.6497" y2="1007.6497"/><text fill="#F5F5F5" font-family="&quot;Graphik LCG&quot;" font-size="12.5" lengthAdjust="spacing" textLength="60.4167" x="549.4792" y="963.0412">Response</text><text fill="#F5F5F5" font-family="&quot;Graphik LCG&quot;" font-size="12.5" lengthAdjust="spacing" textLength="3.125" x="579.6875" y="978.7638"> </text><text fill="#F5F5F5" font-family="&quot;Graphik LCG&quot;" font-size="12.5" lengthAdjust="spacing" textLength="264.5833" x="448.9583" y="994.4865">Payload: financialMessage {base64 pacs.002}</text><polygon fill="#666666" points="1529.1667,1050.4557,1518.75,1054.6224,1529.1667,1058.7891,1525,1054.6224" style="stroke:#666;stroke-width:1.0416666666666667"/><polygon fill="#666666" points="1848.4375,1050.4557,1858.8542,1054.6224,1848.4375,1058.7891,1852.6042,1054.6224" style="stroke:#666;stroke-width:1.0416666666666667"/><line style="stroke:#666;stroke-width:1.0416666666666667" x1="1522.9167" x2="1854.6875" y1="1054.6224" y2="1054.6224"/><text fill="#F5F5F5" font-family="&quot;Graphik LCG&quot;" font-size="12.5" lengthAdjust="spacing" textLength="130.2083" x="1624.2188" y="1041.4591">Subscribed to the topic</text><path d="M296.875,1078.5807 L296.875,1100.4557 A10.4167,10.4167 0 0 0 307.2917,1110.8724 L696.875,1110.8724 A10.4167,10.4167 0 0 0 707.2917,1100.4557 L707.2917,1078.5807 L696.875,1068.1641 L307.2917,1068.1641 A10.4167,10.4167 0 0 0 296.875,1078.5807 " fill="url(#g1cwnrzzzepdbw0)" style="stroke:#181818;stroke-width:.5208333333333334"/><path d="M696.875,1068.1641 L696.875,1073.3724 A5.2083,5.2083 0 0 0 702.0833,1078.5807 L707.2917,1078.5807 L696.875,1068.1641 " fill="url(#g1cwnrzzzepdbw0)" style="stroke:#181818;stroke-width:.5208333333333334"/><text fill="#85C6FF" font-family="&quot;Graphik LCG&quot;" font-size="12.5" lengthAdjust="spacing" textLength="371.875" x="311.4583" y="1094.6818">Sends a query to extract a response to the DSA Redeem Request</text><polygon fill="#666666" points="1848.4375,1182.0964,1858.8542,1186.263,1848.4375,1190.4297,1852.6042,1186.263" style="stroke:#666;stroke-width:1.0416666666666667"/><line style="stroke:#666;stroke-width:1.0416666666666667" x1="502.6042" x2="1854.6875" y1="1186.263" y2="1186.263"/><text fill="#F5F5F5" font-family="&quot;Graphik LCG&quot;" font-size="12.5" lengthAdjust="spacing" textLength="143.75" x="1108.3333" y="1141.6545">GET /gateway/messages</text><text fill="#F5F5F5" font-family="&quot;Graphik LCG&quot;" font-size="12.5" lengthAdjust="spacing" textLength="3.125" x="1180.2083" y="1157.3771"> </text><text fill="#F5F5F5" font-family="&quot;Graphik LCG&quot;" font-size="12.5" lengthAdjust="spacing" textLength="301.0417" x="1031.25" y="1173.0998">with the “payment” argument in the query parameters</text><path d="M392.7083,1210.2214 L392.7083,1232.0964 A10.4167,10.4167 0 0 0 403.125,1242.513 L602.0833,1242.513 A10.4167,10.4167 0 0 0 612.5,1232.0964 L612.5,1210.2214 L602.0833,1199.8047 L403.125,1199.8047 A10.4167,10.4167 0 0 0 392.7083,1210.2214 " fill="url(#g1cwnrzzzepdbw0)" style="stroke:#181818;stroke-width:.5208333333333334"/><path d="M602.0833,1199.8047 L602.0833,1205.013 A5.2083,5.2083 0 0 0 607.2917,1210.2214 L612.5,1210.2214 L602.0833,1199.8047 " fill="url(#g1cwnrzzzepdbw0)" style="stroke:#181818;stroke-width:.5208333333333334"/><text fill="#85C6FF" font-family="&quot;Graphik LCG&quot;" font-size="12.5" lengthAdjust="spacing" textLength="181.25" x="407.2917" y="1226.3224">Gets the DSA Redeem Request</text><polygon fill="#666666" points="514.0625,1313.737,503.6458,1317.9036,514.0625,1322.0703,509.8958,1317.9036" style="stroke:#666;stroke-width:1.0416666666666667"/><line style="stroke:#666;stroke-width:1.0416666666666667" x1="507.8125" x2="1859.8958" y1="1317.9036" y2="1317.9036"/><text fill="#F5F5F5" font-family="&quot;Graphik LCG&quot;" font-size="12.5" lengthAdjust="spacing" textLength="60.4167" x="1150" y="1273.2951">Response</text><text fill="#F5F5F5" font-family="&quot;Graphik LCG&quot;" font-size="12.5" lengthAdjust="spacing" textLength="3.125" x="1180.2083" y="1289.0177"> </text><text fill="#F5F5F5" font-family="&quot;Graphik LCG&quot;" font-size="12.5" lengthAdjust="spacing" textLength="264.5833" x="1049.4792" y="1304.7404">Payload: financialMessage {base64 pacs.009}</text></g></svg>