<?xml version="1.0" encoding="UTF-8" standalone="no"?><svg xmlns="http://www.w3.org/2000/svg" xmlns:xlink="http://www.w3.org/1999/xlink" contentStyleType="text/css" height="2618.75px" preserveAspectRatio="none" style="width:2975px;height:2618px;background-color:#141414" version="1.1" viewBox="0 0 2975 2618" width="2975px" zoomAndPan="magnify"><defs><linearGradient id="g16ymmv5mxu8fx0" x1="50%" x2="50%" y1="0%" y2="100%"><stop offset="0%" stop-color="#003666"/><stop offset="100%" stop-color="#003666"/></linearGradient></defs><g><rect fill="#292929" height="2606.543" rx="10.4167" ry="10.4167" style="stroke:#959595;stroke-width:.5208333333333334" width="1715.625" x="659.8958" y="6.25"/><text fill="#85C6FF" font-family="&quot;Graphik LCG&quot;" font-size="12.5" lengthAdjust="spacing" textLength="92.7083" x="1471.3542" y="27.5594">IsSettled Services</text><line style="stroke:#666;stroke-width:.5208333333333334;stroke-dasharray:5,5" x1="361.4583" x2="361.4583" y1="90.8203" y2="2561.6536"/><line style="stroke:#666;stroke-width:.5208333333333334;stroke-dasharray:5,5" x1="800.5208" x2="800.5208" y1="90.8203" y2="2561.6536"/><line style="stroke:#666;stroke-width:.5208333333333334;stroke-dasharray:5,5" x1="1081.7708" x2="1081.7708" y1="90.8203" y2="2561.6536"/><line style="stroke:#666;stroke-width:.5208333333333334;stroke-dasharray:5,5" x1="1334.8958" x2="1334.8958" y1="90.8203" y2="2561.6536"/><line style="stroke:#666;stroke-width:.5208333333333334;stroke-dasharray:5,5" x1="1517.1875" x2="1517.1875" y1="90.8203" y2="2561.6536"/><line style="stroke:#666;stroke-width:.5208333333333334;stroke-dasharray:5,5" x1="1699.4792" x2="1699.4792" y1="90.8203" y2="2561.6536"/><line style="stroke:#666;stroke-width:.5208333333333334;stroke-dasharray:5,5" x1="1952.6042" x2="1952.6042" y1="90.8203" y2="2561.6536"/><line style="stroke:#666;stroke-width:.5208333333333334;stroke-dasharray:5,5" x1="2233.8542" x2="2233.8542" y1="90.8203" y2="2561.6536"/><line style="stroke:#666;stroke-width:.5208333333333334;stroke-dasharray:5,5" x1="2673.9583" x2="2673.9583" y1="90.8203" y2="2561.6536"/><rect fill="#3D3D3D" height="46.9727" rx="10.4167" ry="10.4167" style="stroke:#292929;stroke-width:.5208333333333334" width="50" x="336.4583" y="42.806"/><text fill="#F5F5F5" font-family="&quot;Graphik LCG&quot;" font-size="12.5" lengthAdjust="spacing" textLength="18.75" x="352.0833" y="71.4071">BFI</text><rect fill="#3D3D3D" height="46.9727" rx="10.4167" ry="10.4167" style="stroke:#292929;stroke-width:.5208333333333334" width="50" x="336.4583" y="2560.612"/><text fill="#F5F5F5" font-family="&quot;Graphik LCG&quot;" font-size="12.5" lengthAdjust="spacing" textLength="18.75" x="352.0833" y="2589.2131">BFI</text><rect fill="#3D3D3D" height="46.9727" rx="10.4167" ry="10.4167" style="stroke:#292929;stroke-width:.5208333333333334" width="211.4583" x="695.3125" y="42.806"/><text fill="#F5F5F5" font-family="&quot;Graphik LCG&quot;" font-size="12.5" lengthAdjust="spacing" textLength="180.2083" x="710.9375" y="71.4071">BFI_Payment_Initiation_Service</text><rect fill="#3D3D3D" height="46.9727" rx="10.4167" ry="10.4167" style="stroke:#292929;stroke-width:.5208333333333334" width="211.4583" x="695.3125" y="2560.612"/><text fill="#F5F5F5" font-family="&quot;Graphik LCG&quot;" font-size="12.5" lengthAdjust="spacing" textLength="180.2083" x="710.9375" y="2589.2131">BFI_Payment_Initiation_Service</text><rect fill="#3D3D3D" height="46.9727" rx="10.4167" ry="10.4167" style="stroke:#292929;stroke-width:.5208333333333334" width="205.2083" x="979.6875" y="42.806"/><text fill="#F5F5F5" font-family="&quot;Graphik LCG&quot;" font-size="12.5" lengthAdjust="spacing" textLength="173.9583" x="995.3125" y="71.4071">BFI_Digital_Signature_Service</text><rect fill="#3D3D3D" height="46.9727" rx="10.4167" ry="10.4167" style="stroke:#292929;stroke-width:.5208333333333334" width="205.2083" x="979.6875" y="2560.612"/><text fill="#F5F5F5" font-family="&quot;Graphik LCG&quot;" font-size="12.5" lengthAdjust="spacing" textLength="173.9583" x="995.3125" y="2589.2131">BFI_Digital_Signature_Service</text><rect fill="#3D3D3D" height="46.9727" rx="10.4167" ry="10.4167" style="stroke:#292929;stroke-width:.5208333333333334" width="155.2083" x="1257.8125" y="42.806"/><text fill="#F5F5F5" font-family="&quot;Graphik LCG&quot;" font-size="12.5" lengthAdjust="spacing" textLength="123.9583" x="1273.4375" y="71.4071">BFI_Gateway_Service</text><rect fill="#3D3D3D" height="46.9727" rx="10.4167" ry="10.4167" style="stroke:#292929;stroke-width:.5208333333333334" width="155.2083" x="1257.8125" y="2560.612"/><text fill="#F5F5F5" font-family="&quot;Graphik LCG&quot;" font-size="12.5" lengthAdjust="spacing" textLength="123.9583" x="1273.4375" y="2589.2131">BFI_Gateway_Service</text><rect fill="#3D3D3D" height="46.9727" rx="10.4167" ry="10.4167" style="stroke:#292929;stroke-width:.5208333333333334" width="63.5417" x="1485.9375" y="42.806"/><text fill="#F5F5F5" font-family="&quot;Graphik LCG&quot;" font-size="12.5" lengthAdjust="spacing" textLength="32.2917" x="1501.5625" y="71.4071">Kafka</text><rect fill="#3D3D3D" height="46.9727" rx="10.4167" ry="10.4167" style="stroke:#292929;stroke-width:.5208333333333334" width="63.5417" x="1485.9375" y="2560.612"/><text fill="#F5F5F5" font-family="&quot;Graphik LCG&quot;" font-size="12.5" lengthAdjust="spacing" textLength="32.2917" x="1501.5625" y="2589.2131">Kafka</text><rect fill="#3D3D3D" height="46.9727" rx="10.4167" ry="10.4167" style="stroke:#292929;stroke-width:.5208333333333334" width="155.2083" x="1622.3958" y="42.806"/><text fill="#F5F5F5" font-family="&quot;Graphik LCG&quot;" font-size="12.5" lengthAdjust="spacing" textLength="123.9583" x="1638.0208" y="71.4071">SFI_Gateway_Service</text><rect fill="#3D3D3D" height="46.9727" rx="10.4167" ry="10.4167" style="stroke:#292929;stroke-width:.5208333333333334" width="155.2083" x="1622.3958" y="2560.612"/><text fill="#F5F5F5" font-family="&quot;Graphik LCG&quot;" font-size="12.5" lengthAdjust="spacing" textLength="123.9583" x="1638.0208" y="2589.2131">SFI_Gateway_Service</text><rect fill="#3D3D3D" height="46.9727" rx="10.4167" ry="10.4167" style="stroke:#292929;stroke-width:.5208333333333334" width="205.2083" x="1850.5208" y="42.806"/><text fill="#F5F5F5" font-family="&quot;Graphik LCG&quot;" font-size="12.5" lengthAdjust="spacing" textLength="173.9583" x="1866.1458" y="71.4071">SFI_Digital_Signature_Service</text><rect fill="#3D3D3D" height="46.9727" rx="10.4167" ry="10.4167" style="stroke:#292929;stroke-width:.5208333333333334" width="205.2083" x="1850.5208" y="2560.612"/><text fill="#F5F5F5" font-family="&quot;Graphik LCG&quot;" font-size="12.5" lengthAdjust="spacing" textLength="173.9583" x="1866.1458" y="2589.2131">SFI_Digital_Signature_Service</text><rect fill="#3D3D3D" height="46.9727" rx="10.4167" ry="10.4167" style="stroke:#292929;stroke-width:.5208333333333334" width="211.4583" x="2128.6458" y="42.806"/><text fill="#F5F5F5" font-family="&quot;Graphik LCG&quot;" font-size="12.5" lengthAdjust="spacing" textLength="180.2083" x="2144.2708" y="71.4071">SFI_Payment_Initiation_Service</text><rect fill="#3D3D3D" height="46.9727" rx="10.4167" ry="10.4167" style="stroke:#292929;stroke-width:.5208333333333334" width="211.4583" x="2128.6458" y="2560.612"/><text fill="#F5F5F5" font-family="&quot;Graphik LCG&quot;" font-size="12.5" lengthAdjust="spacing" textLength="180.2083" x="2144.2708" y="2589.2131">SFI_Payment_Initiation_Service</text><rect fill="#3D3D3D" height="46.9727" rx="10.4167" ry="10.4167" style="stroke:#292929;stroke-width:.5208333333333334" width="50" x="2648.9583" y="42.806"/><text fill="#F5F5F5" font-family="&quot;Graphik LCG&quot;" font-size="12.5" lengthAdjust="spacing" textLength="18.75" x="2664.5833" y="71.4071">SFI</text><rect fill="#3D3D3D" height="46.9727" rx="10.4167" ry="10.4167" style="stroke:#292929;stroke-width:.5208333333333334" width="50" x="2648.9583" y="2560.612"/><text fill="#F5F5F5" font-family="&quot;Graphik LCG&quot;" font-size="12.5" lengthAdjust="spacing" textLength="18.75" x="2664.5833" y="2589.2131">SFI</text><path d="M231.25,116.862 L231.25,138.737 A10.4167,10.4167 0 0 0 241.6667,149.1536 L481.25,149.1536 A10.4167,10.4167 0 0 0 491.6667,138.737 L491.6667,116.862 L481.25,106.4453 L241.6667,106.4453 A10.4167,10.4167 0 0 0 231.25,116.862 " fill="url(#g16ymmv5mxu8fx0)" style="stroke:#181818;stroke-width:.5208333333333334"/><path d="M481.25,106.4453 L481.25,111.6536 A5.2083,5.2083 0 0 0 486.4583,116.862 L491.6667,116.862 L481.25,106.4453 " fill="url(#g16ymmv5mxu8fx0)" style="stroke:#181818;stroke-width:.5208333333333334"/><text fill="#85C6FF" font-family="&quot;Graphik LCG&quot;" font-size="12.5" lengthAdjust="spacing" textLength="221.875" x="245.8333" y="132.9631">Creates a camt.026 financial message</text><line style="stroke:#666;stroke-width:1.0416666666666667" x1="317.7083" x2="361.4583" y1="193.099" y2="193.099"/><line style="stroke:#666;stroke-width:1.0416666666666667" x1="317.7083" x2="317.7083" y1="193.099" y2="206.6406"/><line style="stroke:#666;stroke-width:1.0416666666666667" x1="317.7083" x2="360.4167" y1="206.6406" y2="206.6406"/><polygon fill="#666666" points="352.0833,202.474,362.5,206.6406,352.0833,210.8073,356.25,206.6406" style="stroke:#666;stroke-width:1.0416666666666667"/><text fill="#F5F5F5" font-family="&quot;Graphik LCG&quot;" font-size="12.5" lengthAdjust="spacing" textLength="330.2083" x="22.9167" y="179.9357">Creating a camt.026 financial message on the server side</text><path d="M227.0833,230.599 L227.0833,252.474 A10.4167,10.4167 0 0 0 237.5,262.8906 L485.4167,262.8906 A10.4167,10.4167 0 0 0 495.8333,252.474 L495.8333,230.599 L485.4167,220.1823 L237.5,220.1823 A10.4167,10.4167 0 0 0 227.0833,230.599 " fill="url(#g16ymmv5mxu8fx0)" style="stroke:#181818;stroke-width:.5208333333333334"/><path d="M485.4167,220.1823 L485.4167,225.3906 A5.2083,5.2083 0 0 0 490.625,230.599 L495.8333,230.599 L485.4167,220.1823 " fill="url(#g16ymmv5mxu8fx0)" style="stroke:#181818;stroke-width:.5208333333333334"/><text fill="#85C6FF" font-family="&quot;Graphik LCG&quot;" font-size="12.5" lengthAdjust="spacing" textLength="230.2083" x="241.6667" y="246.7">Generates the “unsignedPayload” object</text><line style="stroke:#666;stroke-width:1.0416666666666667" x1="317.7083" x2="361.4583" y1="306.8359" y2="306.8359"/><line style="stroke:#666;stroke-width:1.0416666666666667" x1="317.7083" x2="317.7083" y1="306.8359" y2="320.3776"/><line style="stroke:#666;stroke-width:1.0416666666666667" x1="317.7083" x2="360.4167" y1="320.3776" y2="320.3776"/><polygon fill="#666666" points="352.0833,316.2109,362.5,320.3776,352.0833,324.5443,356.25,320.3776" style="stroke:#666;stroke-width:1.0416666666666667"/><text fill="#F5F5F5" font-family="&quot;Graphik LCG&quot;" font-size="12.5" lengthAdjust="spacing" textLength="215.625" x="137.5" y="293.6727">Payload generation on the server side</text><path d="M144.7917,344.3359 L144.7917,366.2109 A10.4167,10.4167 0 0 0 155.2083,376.6276 L566.6667,376.6276 A10.4167,10.4167 0 0 0 577.0833,366.2109 L577.0833,344.3359 L566.6667,333.9193 L155.2083,333.9193 A10.4167,10.4167 0 0 0 144.7917,344.3359 " fill="url(#g16ymmv5mxu8fx0)" style="stroke:#181818;stroke-width:.5208333333333334"/><path d="M566.6667,333.9193 L566.6667,339.1276 A5.2083,5.2083 0 0 0 571.875,344.3359 L577.0833,344.3359 L566.6667,333.9193 " fill="url(#g16ymmv5mxu8fx0)" style="stroke:#181818;stroke-width:.5208333333333334"/><text fill="#85C6FF" font-family="&quot;Graphik LCG&quot;" font-size="12.5" lengthAdjust="spacing" textLength="393.75" x="159.375" y="360.437">Sends a camt.026 financial message in base64 encoding for signing</text><polygon fill="#666666" points="1069.7917,447.8516,1080.2083,452.0182,1069.7917,456.1849,1073.9583,452.0182" style="stroke:#666;stroke-width:1.0416666666666667"/><line style="stroke:#666;stroke-width:1.0416666666666667" x1="361.4583" x2="1076.0417" y1="452.0182" y2="452.0182"/><text fill="#F5F5F5" font-family="&quot;Graphik LCG&quot;" font-size="12.5" lengthAdjust="spacing" textLength="122.9167" x="658.8542" y="407.4097">POST /sign/message</text><text fill="#F5F5F5" font-family="&quot;Graphik LCG&quot;" font-size="12.5" lengthAdjust="spacing" textLength="3.125" x="720.3125" y="423.1323"> </text><text fill="#F5F5F5" font-family="&quot;Graphik LCG&quot;" font-size="12.5" lengthAdjust="spacing" textLength="263.5417" x="590.1042" y="438.855">Payload: unsignedPayload {base64 camt.026}</text><path d="M218.75,475.9766 L218.75,497.8516 A10.4167,10.4167 0 0 0 229.1667,508.2682 L492.7083,508.2682 A10.4167,10.4167 0 0 0 503.125,497.8516 L503.125,475.9766 L492.7083,465.5599 L229.1667,465.5599 A10.4167,10.4167 0 0 0 218.75,475.9766 " fill="url(#g16ymmv5mxu8fx0)" style="stroke:#181818;stroke-width:.5208333333333334"/><path d="M492.7083,465.5599 L492.7083,470.7682 A5.2083,5.2083 0 0 0 497.9167,475.9766 L503.125,475.9766 L492.7083,465.5599 " fill="url(#g16ymmv5mxu8fx0)" style="stroke:#181818;stroke-width:.5208333333333334"/><text fill="#85C6FF" font-family="&quot;Graphik LCG&quot;" font-size="12.5" lengthAdjust="spacing" textLength="245.8333" x="233.3333" y="492.0776">Gets a signed camt.026 financial message</text><polygon fill="#666666" points="372.9167,579.4922,362.5,583.6589,372.9167,587.8255,368.75,583.6589" style="stroke:#666;stroke-width:1.0416666666666667"/><line style="stroke:#666;stroke-width:1.0416666666666667" x1="366.6667" x2="1081.25" y1="583.6589" y2="583.6589"/><text fill="#F5F5F5" font-family="&quot;Graphik LCG&quot;" font-size="12.5" lengthAdjust="spacing" textLength="60.4167" x="690.1042" y="539.0503">Response</text><text fill="#F5F5F5" font-family="&quot;Graphik LCG&quot;" font-size="12.5" lengthAdjust="spacing" textLength="3.125" x="720.3125" y="554.7729"> </text><text fill="#F5F5F5" font-family="&quot;Graphik LCG&quot;" font-size="12.5" lengthAdjust="spacing" textLength="302.0833" x="570.8333" y="570.4956">Payload: signedMessagePayload {base64 camt.026}</text><path d="M226.0417,607.6172 L226.0417,629.4922 A10.4167,10.4167 0 0 0 236.4583,639.9089 L485.4167,639.9089 A10.4167,10.4167 0 0 0 495.8333,629.4922 L495.8333,607.6172 L485.4167,597.2005 L236.4583,597.2005 A10.4167,10.4167 0 0 0 226.0417,607.6172 " fill="url(#g16ymmv5mxu8fx0)" style="stroke:#181818;stroke-width:.5208333333333334"/><path d="M485.4167,597.2005 L485.4167,602.4089 A5.2083,5.2083 0 0 0 490.625,607.6172 L495.8333,607.6172 L485.4167,597.2005 " fill="url(#g16ymmv5mxu8fx0)" style="stroke:#181818;stroke-width:.5208333333333334"/><text fill="#85C6FF" font-family="&quot;Graphik LCG&quot;" font-size="12.5" lengthAdjust="spacing" textLength="231.25" x="240.625" y="623.7183">Generates the “financialMessage” object</text><line style="stroke:#666;stroke-width:1.0416666666666667" x1="317.7083" x2="361.4583" y1="683.8542" y2="683.8542"/><line style="stroke:#666;stroke-width:1.0416666666666667" x1="317.7083" x2="317.7083" y1="683.8542" y2="697.3958"/><line style="stroke:#666;stroke-width:1.0416666666666667" x1="317.7083" x2="360.4167" y1="697.3958" y2="697.3958"/><polygon fill="#666666" points="352.0833,693.2292,362.5,697.3958,352.0833,701.5625,356.25,697.3958" style="stroke:#666;stroke-width:1.0416666666666667"/><text fill="#F5F5F5" font-family="&quot;Graphik LCG&quot;" font-size="12.5" lengthAdjust="spacing" textLength="215.625" x="137.5" y="670.6909">Payload generation on the server side</text><path d="M181.25,721.3542 L181.25,743.2292 A10.4167,10.4167 0 0 0 191.6667,753.6458 L530.2083,753.6458 A10.4167,10.4167 0 0 0 540.625,743.2292 L540.625,721.3542 L530.2083,710.9375 L191.6667,710.9375 A10.4167,10.4167 0 0 0 181.25,721.3542 " fill="url(#g16ymmv5mxu8fx0)" style="stroke:#181818;stroke-width:.5208333333333334"/><path d="M530.2083,710.9375 L530.2083,716.1458 A5.2083,5.2083 0 0 0 535.4167,721.3542 L540.625,721.3542 L530.2083,710.9375 " fill="url(#g16ymmv5mxu8fx0)" style="stroke:#181818;stroke-width:.5208333333333334"/><text fill="#85C6FF" font-family="&quot;Graphik LCG&quot;" font-size="12.5" lengthAdjust="spacing" textLength="320.8333" x="195.8333" y="737.4552">Sends a response to the Payment Cancelation Request</text><polygon fill="#666666" points="788.5417,824.8698,798.9583,829.0365,788.5417,833.2031,792.7083,829.0365" style="stroke:#666;stroke-width:1.0416666666666667"/><line style="stroke:#666;stroke-width:1.0416666666666667" x1="361.4583" x2="794.7917" y1="829.0365" y2="829.0365"/><text fill="#F5F5F5" font-family="&quot;Graphik LCG&quot;" font-size="12.5" lengthAdjust="spacing" textLength="186.4583" x="486.4583" y="784.4279">POST /payments/message/send</text><text fill="#F5F5F5" font-family="&quot;Graphik LCG&quot;" font-size="12.5" lengthAdjust="spacing" textLength="3.125" x="579.6875" y="800.1506"> </text><text fill="#F5F5F5" font-family="&quot;Graphik LCG&quot;" font-size="12.5" lengthAdjust="spacing" textLength="397.9167" x="382.2917" y="815.8732">Payload: financialMessage {signedMessagePayload + message type}</text><polygon fill="#666666" points="1505.2083,871.8424,1515.625,876.0091,1505.2083,880.1758,1509.375,876.0091" style="stroke:#666;stroke-width:1.0416666666666667"/><line style="stroke:#666;stroke-width:1.0416666666666667" x1="801.0417" x2="1511.4583" y1="876.0091" y2="876.0091"/><text fill="#F5F5F5" font-family="&quot;Graphik LCG&quot;" font-size="12.5" lengthAdjust="spacing" textLength="144.7917" x="1086.9792" y="862.8459">Add message to the topic</text><path d="M245.8333,899.9674 L245.8333,921.8424 A10.4167,10.4167 0 0 0 256.25,932.2591 L466.6667,932.2591 A10.4167,10.4167 0 0 0 477.0833,921.8424 L477.0833,899.9674 L466.6667,889.5508 L256.25,889.5508 A10.4167,10.4167 0 0 0 245.8333,899.9674 " fill="url(#g16ymmv5mxu8fx0)" style="stroke:#181818;stroke-width:.5208333333333334"/><path d="M466.6667,889.5508 L466.6667,894.7591 A5.2083,5.2083 0 0 0 471.875,899.9674 L477.0833,899.9674 L466.6667,889.5508 " fill="url(#g16ymmv5mxu8fx0)" style="stroke:#181818;stroke-width:.5208333333333334"/><text fill="#85C6FF" font-family="&quot;Graphik LCG&quot;" font-size="12.5" lengthAdjust="spacing" textLength="192.7083" x="260.4167" y="916.0685">Gets camt.030 financial message</text><polygon fill="#666666" points="372.9167,1003.4831,362.5,1007.6497,372.9167,1011.8164,368.75,1007.6497" style="stroke:#666;stroke-width:1.0416666666666667"/><line style="stroke:#666;stroke-width:1.0416666666666667" x1="366.6667" x2="800" y1="1007.6497" y2="1007.6497"/><text fill="#F5F5F5" font-family="&quot;Graphik LCG&quot;" font-size="12.5" lengthAdjust="spacing" textLength="60.4167" x="549.4792" y="963.0412">Response</text><text fill="#F5F5F5" font-family="&quot;Graphik LCG&quot;" font-size="12.5" lengthAdjust="spacing" textLength="3.125" x="579.6875" y="978.7638"> </text><text fill="#F5F5F5" font-family="&quot;Graphik LCG&quot;" font-size="12.5" lengthAdjust="spacing" textLength="264.5833" x="448.9583" y="994.4865">Payload: financialMessage {base64 camt.030}</text><polygon fill="#666666" points="1529.1667,1050.4557,1518.75,1054.6224,1529.1667,1058.7891,1525,1054.6224" style="stroke:#666;stroke-width:1.0416666666666667"/><polygon fill="#666666" points="1687.5,1050.4557,1697.9167,1054.6224,1687.5,1058.7891,1691.6667,1054.6224" style="stroke:#666;stroke-width:1.0416666666666667"/><line style="stroke:#666;stroke-width:1.0416666666666667" x1="1522.9167" x2="1693.75" y1="1054.6224" y2="1054.6224"/><text fill="#F5F5F5" font-family="&quot;Graphik LCG&quot;" font-size="12.5" lengthAdjust="spacing" textLength="130.2083" x="1543.75" y="1041.4591">Subscribed to the topic</text><path d="M2383.3333,1078.5807 L2383.3333,1100.4557 A10.4167,10.4167 0 0 0 2393.75,1110.8724 L2953.125,1110.8724 A10.4167,10.4167 0 0 0 2963.5417,1100.4557 L2963.5417,1078.5807 L2953.125,1068.1641 L2393.75,1068.1641 A10.4167,10.4167 0 0 0 2383.3333,1078.5807 " fill="url(#g16ymmv5mxu8fx0)" style="stroke:#181818;stroke-width:.5208333333333334"/><path d="M2953.125,1068.1641 L2953.125,1073.3724 A5.2083,5.2083 0 0 0 2958.3333,1078.5807 L2963.5417,1078.5807 L2953.125,1068.1641 " fill="url(#g16ymmv5mxu8fx0)" style="stroke:#181818;stroke-width:.5208333333333334"/><text fill="#85C6FF" font-family="&quot;Graphik LCG&quot;" font-size="12.5" lengthAdjust="spacing" textLength="541.6667" x="2397.9167" y="1094.6818">Sends a query to extract the Payment Cancelation Request due to the impossibility of execution</text><polygon fill="#666666" points="1711.4583,1182.0964,1701.0417,1186.263,1711.4583,1190.4297,1707.2917,1186.263" style="stroke:#666;stroke-width:1.0416666666666667"/><line style="stroke:#666;stroke-width:1.0416666666666667" x1="1705.2083" x2="2672.9167" y1="1186.263" y2="1186.263"/><text fill="#F5F5F5" font-family="&quot;Graphik LCG&quot;" font-size="12.5" lengthAdjust="spacing" textLength="143.75" x="2113.5417" y="1141.6545">GET /gateway/messages</text><text fill="#F5F5F5" font-family="&quot;Graphik LCG&quot;" font-size="12.5" lengthAdjust="spacing" textLength="3.125" x="2185.4167" y="1157.3771"> </text><text fill="#F5F5F5" font-family="&quot;Graphik LCG&quot;" font-size="12.5" lengthAdjust="spacing" textLength="301.0417" x="2036.4583" y="1173.0998">with the “payment” argument in the query parameters</text><path d="M2558.3333,1210.2214 L2558.3333,1232.0964 A10.4167,10.4167 0 0 0 2568.75,1242.513 L2779.1667,1242.513 A10.4167,10.4167 0 0 0 2789.5833,1232.0964 L2789.5833,1210.2214 L2779.1667,1199.8047 L2568.75,1199.8047 A10.4167,10.4167 0 0 0 2558.3333,1210.2214 " fill="url(#g16ymmv5mxu8fx0)" style="stroke:#181818;stroke-width:.5208333333333334"/><path d="M2779.1667,1199.8047 L2779.1667,1205.013 A5.2083,5.2083 0 0 0 2784.375,1210.2214 L2789.5833,1210.2214 L2779.1667,1199.8047 " fill="url(#g16ymmv5mxu8fx0)" style="stroke:#181818;stroke-width:.5208333333333334"/><text fill="#85C6FF" font-family="&quot;Graphik LCG&quot;" font-size="12.5" lengthAdjust="spacing" textLength="192.7083" x="2572.9167" y="1226.3224">Gets camt.026 financial message</text><polygon fill="#666666" points="2661.4583,1313.737,2671.875,1317.9036,2661.4583,1322.0703,2665.625,1317.9036" style="stroke:#666;stroke-width:1.0416666666666667"/><line style="stroke:#666;stroke-width:1.0416666666666667" x1="1700" x2="2667.7083" y1="1317.9036" y2="1317.9036"/><text fill="#F5F5F5" font-family="&quot;Graphik LCG&quot;" font-size="12.5" lengthAdjust="spacing" textLength="60.4167" x="2155.2083" y="1273.2951">Response</text><text fill="#F5F5F5" font-family="&quot;Graphik LCG&quot;" font-size="12.5" lengthAdjust="spacing" textLength="3.125" x="2185.4167" y="1289.0177"> </text><text fill="#F5F5F5" font-family="&quot;Graphik LCG&quot;" font-size="12.5" lengthAdjust="spacing" textLength="264.5833" x="2054.6875" y="1304.7404">Payload: financialMessage {base64 camt.026}</text><path d="M2543.75,1341.862 L2543.75,1363.737 A10.4167,10.4167 0 0 0 2554.1667,1374.1536 L2793.75,1374.1536 A10.4167,10.4167 0 0 0 2804.1667,1363.737 L2804.1667,1341.862 L2793.75,1331.4453 L2554.1667,1331.4453 A10.4167,10.4167 0 0 0 2543.75,1341.862 " fill="url(#g16ymmv5mxu8fx0)" style="stroke:#181818;stroke-width:.5208333333333334"/><path d="M2793.75,1331.4453 L2793.75,1336.6536 A5.2083,5.2083 0 0 0 2798.9583,1341.862 L2804.1667,1341.862 L2793.75,1331.4453 " fill="url(#g16ymmv5mxu8fx0)" style="stroke:#181818;stroke-width:.5208333333333334"/><text fill="#85C6FF" font-family="&quot;Graphik LCG&quot;" font-size="12.5" lengthAdjust="spacing" textLength="221.875" x="2558.3333" y="1357.9631">Creates a camt.087 financial message</text><line style="stroke:#666;stroke-width:1.0416666666666667" x1="2630.2083" x2="2673.9583" y1="1418.099" y2="1418.099"/><line style="stroke:#666;stroke-width:1.0416666666666667" x1="2630.2083" x2="2630.2083" y1="1418.099" y2="1431.6406"/><line style="stroke:#666;stroke-width:1.0416666666666667" x1="2630.2083" x2="2672.9167" y1="1431.6406" y2="1431.6406"/><polygon fill="#666666" points="2664.5833,1427.474,2675,1431.6406,2664.5833,1435.8073,2668.75,1431.6406" style="stroke:#666;stroke-width:1.0416666666666667"/><text fill="#F5F5F5" font-family="&quot;Graphik LCG&quot;" font-size="12.5" lengthAdjust="spacing" textLength="330.2083" x="2335.4167" y="1404.9357">Creating a camt.087 financial message on the server side</text><path d="M2539.5833,1455.599 L2539.5833,1477.474 A10.4167,10.4167 0 0 0 2550,1487.8906 L2797.9167,1487.8906 A10.4167,10.4167 0 0 0 2808.3333,1477.474 L2808.3333,1455.599 L2797.9167,1445.1823 L2550,1445.1823 A10.4167,10.4167 0 0 0 2539.5833,1455.599 " fill="url(#g16ymmv5mxu8fx0)" style="stroke:#181818;stroke-width:.5208333333333334"/><path d="M2797.9167,1445.1823 L2797.9167,1450.3906 A5.2083,5.2083 0 0 0 2803.125,1455.599 L2808.3333,1455.599 L2797.9167,1445.1823 " fill="url(#g16ymmv5mxu8fx0)" style="stroke:#181818;stroke-width:.5208333333333334"/><text fill="#85C6FF" font-family="&quot;Graphik LCG&quot;" font-size="12.5" lengthAdjust="spacing" textLength="230.2083" x="2554.1667" y="1471.7">Generates the “unsignedPayload” object</text><line style="stroke:#666;stroke-width:1.0416666666666667" x1="2630.2083" x2="2673.9583" y1="1531.8359" y2="1531.8359"/><line style="stroke:#666;stroke-width:1.0416666666666667" x1="2630.2083" x2="2630.2083" y1="1531.8359" y2="1545.3776"/><line style="stroke:#666;stroke-width:1.0416666666666667" x1="2630.2083" x2="2672.9167" y1="1545.3776" y2="1545.3776"/><polygon fill="#666666" points="2664.5833,1541.2109,2675,1545.3776,2664.5833,1549.5443,2668.75,1545.3776" style="stroke:#666;stroke-width:1.0416666666666667"/><text fill="#F5F5F5" font-family="&quot;Graphik LCG&quot;" font-size="12.5" lengthAdjust="spacing" textLength="215.625" x="2450" y="1518.6727">Payload generation on the server side</text><path d="M2457.2917,1569.3359 L2457.2917,1591.2109 A10.4167,10.4167 0 0 0 2467.7083,1601.6276 L2879.1667,1601.6276 A10.4167,10.4167 0 0 0 2889.5833,1591.2109 L2889.5833,1569.3359 L2879.1667,1558.9193 L2467.7083,1558.9193 A10.4167,10.4167 0 0 0 2457.2917,1569.3359 " fill="url(#g16ymmv5mxu8fx0)" style="stroke:#181818;stroke-width:.5208333333333334"/><path d="M2879.1667,1558.9193 L2879.1667,1564.1276 A5.2083,5.2083 0 0 0 2884.375,1569.3359 L2889.5833,1569.3359 L2879.1667,1558.9193 " fill="url(#g16ymmv5mxu8fx0)" style="stroke:#181818;stroke-width:.5208333333333334"/><text fill="#85C6FF" font-family="&quot;Graphik LCG&quot;" font-size="12.5" lengthAdjust="spacing" textLength="393.75" x="2471.875" y="1585.437">Sends a camt.087 financial message in base64 encoding for signing</text><polygon fill="#666666" points="1964.5833,1672.8516,1954.1667,1677.0182,1964.5833,1681.1849,1960.4167,1677.0182" style="stroke:#666;stroke-width:1.0416666666666667"/><line style="stroke:#666;stroke-width:1.0416666666666667" x1="1958.3333" x2="2672.9167" y1="1677.0182" y2="1677.0182"/><text fill="#F5F5F5" font-family="&quot;Graphik LCG&quot;" font-size="12.5" lengthAdjust="spacing" textLength="122.9167" x="2250.5208" y="1632.4097">POST /sign/message</text><text fill="#F5F5F5" font-family="&quot;Graphik LCG&quot;" font-size="12.5" lengthAdjust="spacing" textLength="3.125" x="2311.9792" y="1648.1323"> </text><text fill="#F5F5F5" font-family="&quot;Graphik LCG&quot;" font-size="12.5" lengthAdjust="spacing" textLength="263.5417" x="2181.7708" y="1663.855">Payload: unsignedPayload {base64 camt.087}</text><path d="M2531.25,1700.9766 L2531.25,1722.8516 A10.4167,10.4167 0 0 0 2541.6667,1733.2682 L2805.2083,1733.2682 A10.4167,10.4167 0 0 0 2815.625,1722.8516 L2815.625,1700.9766 L2805.2083,1690.5599 L2541.6667,1690.5599 A10.4167,10.4167 0 0 0 2531.25,1700.9766 " fill="url(#g16ymmv5mxu8fx0)" style="stroke:#181818;stroke-width:.5208333333333334"/><path d="M2805.2083,1690.5599 L2805.2083,1695.7682 A5.2083,5.2083 0 0 0 2810.4167,1700.9766 L2815.625,1700.9766 L2805.2083,1690.5599 " fill="url(#g16ymmv5mxu8fx0)" style="stroke:#181818;stroke-width:.5208333333333334"/><text fill="#85C6FF" font-family="&quot;Graphik LCG&quot;" font-size="12.5" lengthAdjust="spacing" textLength="245.8333" x="2545.8333" y="1717.0776">Gets a signed camt.087 financial message</text><polygon fill="#666666" points="2661.4583,1804.4922,2671.875,1808.6589,2661.4583,1812.8255,2665.625,1808.6589" style="stroke:#666;stroke-width:1.0416666666666667"/><line style="stroke:#666;stroke-width:1.0416666666666667" x1="1953.125" x2="2667.7083" y1="1808.6589" y2="1808.6589"/><text fill="#F5F5F5" font-family="&quot;Graphik LCG&quot;" font-size="12.5" lengthAdjust="spacing" textLength="60.4167" x="2281.7708" y="1764.0503">Response</text><text fill="#F5F5F5" font-family="&quot;Graphik LCG&quot;" font-size="12.5" lengthAdjust="spacing" textLength="3.125" x="2311.9792" y="1779.7729"> </text><text fill="#F5F5F5" font-family="&quot;Graphik LCG&quot;" font-size="12.5" lengthAdjust="spacing" textLength="302.0833" x="2162.5" y="1795.4956">Payload: signedMessagePayload {base64 camt.087}</text><path d="M2490.625,1832.6172 L2490.625,1854.4922 A10.4167,10.4167 0 0 0 2501.0417,1864.9089 L2845.8333,1864.9089 A10.4167,10.4167 0 0 0 2856.25,1854.4922 L2856.25,1832.6172 L2845.8333,1822.2005 L2501.0417,1822.2005 A10.4167,10.4167 0 0 0 2490.625,1832.6172 " fill="url(#g16ymmv5mxu8fx0)" style="stroke:#181818;stroke-width:.5208333333333334"/><path d="M2845.8333,1822.2005 L2845.8333,1827.4089 A5.2083,5.2083 0 0 0 2851.0417,1832.6172 L2856.25,1832.6172 L2845.8333,1822.2005 " fill="url(#g16ymmv5mxu8fx0)" style="stroke:#181818;stroke-width:.5208333333333334"/><text fill="#85C6FF" font-family="&quot;Graphik LCG&quot;" font-size="12.5" lengthAdjust="spacing" textLength="327.0833" x="2505.2083" y="1848.7183">Generates a Payment Modify Request “financialMessage”</text><line style="stroke:#666;stroke-width:1.0416666666666667" x1="2630.2083" x2="2673.9583" y1="1908.8542" y2="1908.8542"/><line style="stroke:#666;stroke-width:1.0416666666666667" x1="2630.2083" x2="2630.2083" y1="1908.8542" y2="1922.3958"/><line style="stroke:#666;stroke-width:1.0416666666666667" x1="2630.2083" x2="2672.9167" y1="1922.3958" y2="1922.3958"/><polygon fill="#666666" points="2664.5833,1918.2292,2675,1922.3958,2664.5833,1926.5625,2668.75,1922.3958" style="stroke:#666;stroke-width:1.0416666666666667"/><text fill="#F5F5F5" font-family="&quot;Graphik LCG&quot;" font-size="12.5" lengthAdjust="spacing" textLength="215.625" x="2450" y="1895.6909">Payload generation on the server side</text><path d="M2558.3333,1946.3542 L2558.3333,1968.2292 A10.4167,10.4167 0 0 0 2568.75,1978.6458 L2778.125,1978.6458 A10.4167,10.4167 0 0 0 2788.5417,1968.2292 L2788.5417,1946.3542 L2778.125,1935.9375 L2568.75,1935.9375 A10.4167,10.4167 0 0 0 2558.3333,1946.3542 " fill="url(#g16ymmv5mxu8fx0)" style="stroke:#181818;stroke-width:.5208333333333334"/><path d="M2778.125,1935.9375 L2778.125,1941.1458 A5.2083,5.2083 0 0 0 2783.3333,1946.3542 L2788.5417,1946.3542 L2778.125,1935.9375 " fill="url(#g16ymmv5mxu8fx0)" style="stroke:#181818;stroke-width:.5208333333333334"/><text fill="#85C6FF" font-family="&quot;Graphik LCG&quot;" font-size="12.5" lengthAdjust="spacing" textLength="191.6667" x="2572.9167" y="1962.4552">Sends a Payment Modify Request</text><polygon fill="#666666" points="2245.8333,2049.8698,2235.4167,2054.0365,2245.8333,2058.2031,2241.6667,2054.0365" style="stroke:#666;stroke-width:1.0416666666666667"/><line style="stroke:#666;stroke-width:1.0416666666666667" x1="2239.5833" x2="2672.9167" y1="2054.0365" y2="2054.0365"/><text fill="#F5F5F5" font-family="&quot;Graphik LCG&quot;" font-size="12.5" lengthAdjust="spacing" textLength="186.4583" x="2359.375" y="2009.4279">POST /payments/message/send</text><text fill="#F5F5F5" font-family="&quot;Graphik LCG&quot;" font-size="12.5" lengthAdjust="spacing" textLength="3.125" x="2452.6042" y="2025.1506"> </text><text fill="#F5F5F5" font-family="&quot;Graphik LCG&quot;" font-size="12.5" lengthAdjust="spacing" textLength="397.9167" x="2255.2083" y="2040.8732">Payload: financialMessage {signedMessagePayload + message type}</text><polygon fill="#666666" points="1529.1667,2096.8424,1518.75,2101.0091,1529.1667,2105.1758,1525,2101.0091" style="stroke:#666;stroke-width:1.0416666666666667"/><line style="stroke:#666;stroke-width:1.0416666666666667" x1="1522.9167" x2="2233.3333" y1="2101.0091" y2="2101.0091"/><text fill="#F5F5F5" font-family="&quot;Graphik LCG&quot;" font-size="12.5" lengthAdjust="spacing" textLength="144.7917" x="1803.6458" y="2087.8459">Add message to the topic</text><path d="M2558.3333,2124.9674 L2558.3333,2146.8424 A10.4167,10.4167 0 0 0 2568.75,2157.2591 L2779.1667,2157.2591 A10.4167,10.4167 0 0 0 2789.5833,2146.8424 L2789.5833,2124.9674 L2779.1667,2114.5508 L2568.75,2114.5508 A10.4167,10.4167 0 0 0 2558.3333,2124.9674 " fill="url(#g16ymmv5mxu8fx0)" style="stroke:#181818;stroke-width:.5208333333333334"/><path d="M2779.1667,2114.5508 L2779.1667,2119.7591 A5.2083,5.2083 0 0 0 2784.375,2124.9674 L2789.5833,2124.9674 L2779.1667,2114.5508 " fill="url(#g16ymmv5mxu8fx0)" style="stroke:#181818;stroke-width:.5208333333333334"/><text fill="#85C6FF" font-family="&quot;Graphik LCG&quot;" font-size="12.5" lengthAdjust="spacing" textLength="192.7083" x="2572.9167" y="2141.0685">Gets camt.030 financial message</text><polygon fill="#666666" points="2661.4583,2228.4831,2671.875,2232.6497,2661.4583,2236.8164,2665.625,2232.6497" style="stroke:#666;stroke-width:1.0416666666666667"/><line style="stroke:#666;stroke-width:1.0416666666666667" x1="2234.375" x2="2667.7083" y1="2232.6497" y2="2232.6497"/><text fill="#F5F5F5" font-family="&quot;Graphik LCG&quot;" font-size="12.5" lengthAdjust="spacing" textLength="60.4167" x="2422.3958" y="2188.0412">Response</text><text fill="#F5F5F5" font-family="&quot;Graphik LCG&quot;" font-size="12.5" lengthAdjust="spacing" textLength="3.125" x="2452.6042" y="2203.7638"> </text><text fill="#F5F5F5" font-family="&quot;Graphik LCG&quot;" font-size="12.5" lengthAdjust="spacing" textLength="264.5833" x="2321.875" y="2219.4865">Payload: financialMessage {base64 camt.030}</text><polygon fill="#666666" points="1346.875,2275.4557,1336.4583,2279.6224,1346.875,2283.7891,1342.7083,2279.6224" style="stroke:#666;stroke-width:1.0416666666666667"/><polygon fill="#666666" points="1505.2083,2275.4557,1515.625,2279.6224,1505.2083,2283.7891,1509.375,2279.6224" style="stroke:#666;stroke-width:1.0416666666666667"/><line style="stroke:#666;stroke-width:1.0416666666666667" x1="1340.625" x2="1511.4583" y1="2279.6224" y2="2279.6224"/><text fill="#F5F5F5" font-family="&quot;Graphik LCG&quot;" font-size="12.5" lengthAdjust="spacing" textLength="130.2083" x="1361.4583" y="2266.4591">Subscribed to the topic</text><path d="M191.6667,2303.5807 L191.6667,2325.4557 A10.4167,10.4167 0 0 0 202.0833,2335.8724 L519.7917,2335.8724 A10.4167,10.4167 0 0 0 530.2083,2325.4557 L530.2083,2303.5807 L519.7917,2293.1641 L202.0833,2293.1641 A10.4167,10.4167 0 0 0 191.6667,2303.5807 " fill="url(#g16ymmv5mxu8fx0)" style="stroke:#181818;stroke-width:.5208333333333334"/><path d="M519.7917,2293.1641 L519.7917,2298.3724 A5.2083,5.2083 0 0 0 525,2303.5807 L530.2083,2303.5807 L519.7917,2293.1641 " fill="url(#g16ymmv5mxu8fx0)" style="stroke:#181818;stroke-width:.5208333333333334"/><text fill="#85C6FF" font-family="&quot;Graphik LCG&quot;" font-size="12.5" lengthAdjust="spacing" textLength="300" x="206.25" y="2319.6818">Sends a query to extract the Payment Modify Request</text><polygon fill="#666666" points="1322.9167,2407.0964,1333.3333,2411.263,1322.9167,2415.4297,1327.0833,2411.263" style="stroke:#666;stroke-width:1.0416666666666667"/><line style="stroke:#666;stroke-width:1.0416666666666667" x1="361.4583" x2="1329.1667" y1="2411.263" y2="2411.263"/><text fill="#F5F5F5" font-family="&quot;Graphik LCG&quot;" font-size="12.5" lengthAdjust="spacing" textLength="143.75" x="775" y="2366.6545">GET /gateway/messages</text><text fill="#F5F5F5" font-family="&quot;Graphik LCG&quot;" font-size="12.5" lengthAdjust="spacing" textLength="3.125" x="846.875" y="2382.3771"> </text><text fill="#F5F5F5" font-family="&quot;Graphik LCG&quot;" font-size="12.5" lengthAdjust="spacing" textLength="301.0417" x="697.9167" y="2398.0998">with the “payment” argument in the query parameters</text><path d="M245.8333,2435.2214 L245.8333,2457.0964 A10.4167,10.4167 0 0 0 256.25,2467.513 L465.625,2467.513 A10.4167,10.4167 0 0 0 476.0417,2457.0964 L476.0417,2435.2214 L465.625,2424.8047 L256.25,2424.8047 A10.4167,10.4167 0 0 0 245.8333,2435.2214 " fill="url(#g16ymmv5mxu8fx0)" style="stroke:#181818;stroke-width:.5208333333333334"/><path d="M465.625,2424.8047 L465.625,2430.013 A5.2083,5.2083 0 0 0 470.8333,2435.2214 L476.0417,2435.2214 L465.625,2424.8047 " fill="url(#g16ymmv5mxu8fx0)" style="stroke:#181818;stroke-width:.5208333333333334"/><text fill="#85C6FF" font-family="&quot;Graphik LCG&quot;" font-size="12.5" lengthAdjust="spacing" textLength="191.6667" x="260.4167" y="2451.3224">Gets the Payment Modify Request</text><polygon fill="#666666" points="372.9167,2538.737,362.5,2542.9036,372.9167,2547.0703,368.75,2542.9036" style="stroke:#666;stroke-width:1.0416666666666667"/><line style="stroke:#666;stroke-width:1.0416666666666667" x1="366.6667" x2="1334.375" y1="2542.9036" y2="2542.9036"/><text fill="#F5F5F5" font-family="&quot;Graphik LCG&quot;" font-size="12.5" lengthAdjust="spacing" textLength="60.4167" x="816.6667" y="2498.2951">Response</text><text fill="#F5F5F5" font-family="&quot;Graphik LCG&quot;" font-size="12.5" lengthAdjust="spacing" textLength="3.125" x="846.875" y="2514.0177"> </text><text fill="#F5F5F5" font-family="&quot;Graphik LCG&quot;" font-size="12.5" lengthAdjust="spacing" textLength="264.5833" x="716.1458" y="2529.7404">Payload: financialMessage {base64 camt.087}</text></g></svg>