<?xml version="1.0" encoding="UTF-8" standalone="no"?><svg xmlns="http://www.w3.org/2000/svg" xmlns:xlink="http://www.w3.org/1999/xlink" contentStyleType="text/css" height="3162.5px" preserveAspectRatio="none" style="width:3210px;height:3162px;background-color:#141414" version="1.1" viewBox="0 0 3210 3162" width="3210.4167px" zoomAndPan="magnify"><defs><linearGradient id="g1cute1h9ki36v0" x1="50%" x2="50%" y1="0%" y2="100%"><stop offset="0%" stop-color="#003666"/><stop offset="100%" stop-color="#003666"/></linearGradient></defs><g><rect fill="#292929" height="3150.2279" rx="10.4167" ry="10.4167" style="stroke:#959595;stroke-width:.5208333333333334" width="2156.25" x="827.0833" y="6.25"/><text fill="#85C6FF" font-family="&quot;Graphik LCG&quot;" font-size="12.5" lengthAdjust="spacing" textLength="92.7083" x="1858.8542" y="27.5594">IsSettled Services</text><line style="stroke:#666;stroke-width:.5208333333333334;stroke-dasharray:5,5" x1="361.4583" x2="361.4583" y1="90.8203" y2="3105.3385"/><line style="stroke:#666;stroke-width:.5208333333333334;stroke-dasharray:5,5" x1="722.9167" x2="722.9167" y1="90.8203" y2="3105.3385"/><line style="stroke:#666;stroke-width:.5208333333333334;stroke-dasharray:5,5" x1="967.7083" x2="967.7083" y1="90.8203" y2="3105.3385"/><line style="stroke:#666;stroke-width:.5208333333333334;stroke-dasharray:5,5" x1="1248.9583" x2="1248.9583" y1="90.8203" y2="3105.3385"/><line style="stroke:#666;stroke-width:.5208333333333334;stroke-dasharray:5,5" x1="1502.0833" x2="1502.0833" y1="90.8203" y2="3105.3385"/><line style="stroke:#666;stroke-width:.5208333333333334;stroke-dasharray:5,5" x1="1684.375" x2="1684.375" y1="90.8203" y2="3105.3385"/><line style="stroke:#666;stroke-width:.5208333333333334;stroke-dasharray:5,5" x1="2121.875" x2="2121.875" y1="90.8203" y2="3105.3385"/><line style="stroke:#666;stroke-width:.5208333333333334;stroke-dasharray:5,5" x1="2307.2917" x2="2307.2917" y1="90.8203" y2="3105.3385"/><line style="stroke:#666;stroke-width:.5208333333333334;stroke-dasharray:5,5" x1="2560.4167" x2="2560.4167" y1="90.8203" y2="3105.3385"/><line style="stroke:#666;stroke-width:.5208333333333334;stroke-dasharray:5,5" x1="2841.6667" x2="2841.6667" y1="90.8203" y2="3105.3385"/><line style="stroke:#666;stroke-width:.5208333333333334;stroke-dasharray:5,5" x1="3133.3333" x2="3133.3333" y1="90.8203" y2="3105.3385"/><rect fill="#3D3D3D" height="46.9727" rx="10.4167" ry="10.4167" style="stroke:#292929;stroke-width:.5208333333333334" width="50" x="336.4583" y="42.806"/><text fill="#F5F5F5" font-family="&quot;Graphik LCG&quot;" font-size="12.5" lengthAdjust="spacing" textLength="18.75" x="352.0833" y="71.4071">SFI</text><rect fill="#3D3D3D" height="46.9727" rx="10.4167" ry="10.4167" style="stroke:#292929;stroke-width:.5208333333333334" width="50" x="336.4583" y="3104.2969"/><text fill="#F5F5F5" font-family="&quot;Graphik LCG&quot;" font-size="12.5" lengthAdjust="spacing" textLength="18.75" x="352.0833" y="3132.8979">SFI</text><rect fill="#3D3D3D" height="46.9727" rx="10.4167" ry="10.4167" style="stroke:#292929;stroke-width:.5208333333333334" width="50" x="697.9167" y="42.806"/><text fill="#F5F5F5" font-family="&quot;Graphik LCG&quot;" font-size="12.5" lengthAdjust="spacing" textLength="18.75" x="713.5417" y="71.4071">BFI</text><rect fill="#3D3D3D" height="46.9727" rx="10.4167" ry="10.4167" style="stroke:#292929;stroke-width:.5208333333333334" width="50" x="697.9167" y="3104.2969"/><text fill="#F5F5F5" font-family="&quot;Graphik LCG&quot;" font-size="12.5" lengthAdjust="spacing" textLength="18.75" x="713.5417" y="3132.8979">BFI</text><rect fill="#3D3D3D" height="46.9727" rx="10.4167" ry="10.4167" style="stroke:#292929;stroke-width:.5208333333333334" width="211.4583" x="862.5" y="42.806"/><text fill="#F5F5F5" font-family="&quot;Graphik LCG&quot;" font-size="12.5" lengthAdjust="spacing" textLength="180.2083" x="878.125" y="71.4071">SFI_Payment_Initiation_Service</text><rect fill="#3D3D3D" height="46.9727" rx="10.4167" ry="10.4167" style="stroke:#292929;stroke-width:.5208333333333334" width="211.4583" x="862.5" y="3104.2969"/><text fill="#F5F5F5" font-family="&quot;Graphik LCG&quot;" font-size="12.5" lengthAdjust="spacing" textLength="180.2083" x="878.125" y="3132.8979">SFI_Payment_Initiation_Service</text><rect fill="#3D3D3D" height="46.9727" rx="10.4167" ry="10.4167" style="stroke:#292929;stroke-width:.5208333333333334" width="205.2083" x="1146.875" y="42.806"/><text fill="#F5F5F5" font-family="&quot;Graphik LCG&quot;" font-size="12.5" lengthAdjust="spacing" textLength="173.9583" x="1162.5" y="71.4071">SFI_Digital_Signature_Service</text><rect fill="#3D3D3D" height="46.9727" rx="10.4167" ry="10.4167" style="stroke:#292929;stroke-width:.5208333333333334" width="205.2083" x="1146.875" y="3104.2969"/><text fill="#F5F5F5" font-family="&quot;Graphik LCG&quot;" font-size="12.5" lengthAdjust="spacing" textLength="173.9583" x="1162.5" y="3132.8979">SFI_Digital_Signature_Service</text><rect fill="#3D3D3D" height="46.9727" rx="10.4167" ry="10.4167" style="stroke:#292929;stroke-width:.5208333333333334" width="155.2083" x="1425" y="42.806"/><text fill="#F5F5F5" font-family="&quot;Graphik LCG&quot;" font-size="12.5" lengthAdjust="spacing" textLength="123.9583" x="1440.625" y="71.4071">SFI_Gateway_Service</text><rect fill="#3D3D3D" height="46.9727" rx="10.4167" ry="10.4167" style="stroke:#292929;stroke-width:.5208333333333334" width="155.2083" x="1425" y="3104.2969"/><text fill="#F5F5F5" font-family="&quot;Graphik LCG&quot;" font-size="12.5" lengthAdjust="spacing" textLength="123.9583" x="1440.625" y="3132.8979">SFI_Gateway_Service</text><rect fill="#3D3D3D" height="46.9727" rx="10.4167" ry="10.4167" style="stroke:#292929;stroke-width:.5208333333333334" width="63.5417" x="1653.125" y="42.806"/><text fill="#F5F5F5" font-family="&quot;Graphik LCG&quot;" font-size="12.5" lengthAdjust="spacing" textLength="32.2917" x="1668.75" y="71.4071">Kafka</text><rect fill="#3D3D3D" height="46.9727" rx="10.4167" ry="10.4167" style="stroke:#292929;stroke-width:.5208333333333334" width="63.5417" x="1653.125" y="3104.2969"/><text fill="#F5F5F5" font-family="&quot;Graphik LCG&quot;" font-size="12.5" lengthAdjust="spacing" textLength="32.2917" x="1668.75" y="3132.8979">Kafka</text><rect fill="#3D3D3D" height="46.9727" rx="10.4167" ry="10.4167" style="stroke:#292929;stroke-width:.5208333333333334" width="69.7917" x="2087.5" y="42.806"/><text fill="#F5F5F5" font-family="&quot;Graphik LCG&quot;" font-size="12.5" lengthAdjust="spacing" textLength="38.5417" x="2103.125" y="71.4071">IsSettled</text><rect fill="#3D3D3D" height="46.9727" rx="10.4167" ry="10.4167" style="stroke:#292929;stroke-width:.5208333333333334" width="69.7917" x="2087.5" y="3104.2969"/><text fill="#F5F5F5" font-family="&quot;Graphik LCG&quot;" font-size="12.5" lengthAdjust="spacing" textLength="38.5417" x="2103.125" y="3132.8979">IsSettled</text><rect fill="#3D3D3D" height="46.9727" rx="10.4167" ry="10.4167" style="stroke:#292929;stroke-width:.5208333333333334" width="155.2083" x="2230.2083" y="42.806"/><text fill="#F5F5F5" font-family="&quot;Graphik LCG&quot;" font-size="12.5" lengthAdjust="spacing" textLength="123.9583" x="2245.8333" y="71.4071">BFI_Gateway_Service</text><rect fill="#3D3D3D" height="46.9727" rx="10.4167" ry="10.4167" style="stroke:#292929;stroke-width:.5208333333333334" width="155.2083" x="2230.2083" y="3104.2969"/><text fill="#F5F5F5" font-family="&quot;Graphik LCG&quot;" font-size="12.5" lengthAdjust="spacing" textLength="123.9583" x="2245.8333" y="3132.8979">BFI_Gateway_Service</text><rect fill="#3D3D3D" height="46.9727" rx="10.4167" ry="10.4167" style="stroke:#292929;stroke-width:.5208333333333334" width="205.2083" x="2458.3333" y="42.806"/><text fill="#F5F5F5" font-family="&quot;Graphik LCG&quot;" font-size="12.5" lengthAdjust="spacing" textLength="173.9583" x="2473.9583" y="71.4071">BFI_Digital_Signature_Service</text><rect fill="#3D3D3D" height="46.9727" rx="10.4167" ry="10.4167" style="stroke:#292929;stroke-width:.5208333333333334" width="205.2083" x="2458.3333" y="3104.2969"/><text fill="#F5F5F5" font-family="&quot;Graphik LCG&quot;" font-size="12.5" lengthAdjust="spacing" textLength="173.9583" x="2473.9583" y="3132.8979">BFI_Digital_Signature_Service</text><rect fill="#3D3D3D" height="46.9727" rx="10.4167" ry="10.4167" style="stroke:#292929;stroke-width:.5208333333333334" width="211.4583" x="2736.4583" y="42.806"/><text fill="#F5F5F5" font-family="&quot;Graphik LCG&quot;" font-size="12.5" lengthAdjust="spacing" textLength="180.2083" x="2752.0833" y="71.4071">BFI_Payment_Initiation_Service</text><rect fill="#3D3D3D" height="46.9727" rx="10.4167" ry="10.4167" style="stroke:#292929;stroke-width:.5208333333333334" width="211.4583" x="2736.4583" y="3104.2969"/><text fill="#F5F5F5" font-family="&quot;Graphik LCG&quot;" font-size="12.5" lengthAdjust="spacing" textLength="180.2083" x="2752.0833" y="3132.8979">BFI_Payment_Initiation_Service</text><rect fill="#3D3D3D" height="46.9727" rx="10.4167" ry="10.4167" style="stroke:#292929;stroke-width:.5208333333333334" width="141.6667" x="3062.5" y="42.806"/><text fill="#F5F5F5" font-family="&quot;Graphik LCG&quot;" font-size="12.5" lengthAdjust="spacing" textLength="110.4167" x="3078.125" y="71.4071">Distributed_Ledger</text><rect fill="#3D3D3D" height="46.9727" rx="10.4167" ry="10.4167" style="stroke:#292929;stroke-width:.5208333333333334" width="141.6667" x="3062.5" y="3104.2969"/><text fill="#F5F5F5" font-family="&quot;Graphik LCG&quot;" font-size="12.5" lengthAdjust="spacing" textLength="110.4167" x="3078.125" y="3132.8979">Distributed_Ledger</text><path d="M231.25,116.862 L231.25,138.737 A10.4167,10.4167 0 0 0 241.6667,149.1536 L481.25,149.1536 A10.4167,10.4167 0 0 0 491.6667,138.737 L491.6667,116.862 L481.25,106.4453 L241.6667,106.4453 A10.4167,10.4167 0 0 0 231.25,116.862 " fill="url(#g1cute1h9ki36v0)" style="stroke:#181818;stroke-width:.5208333333333334"/><path d="M481.25,106.4453 L481.25,111.6536 A5.2083,5.2083 0 0 0 486.4583,116.862 L491.6667,116.862 L481.25,106.4453 " fill="url(#g1cute1h9ki36v0)" style="stroke:#181818;stroke-width:.5208333333333334"/><text fill="#85C6FF" font-family="&quot;Graphik LCG&quot;" font-size="12.5" lengthAdjust="spacing" textLength="221.875" x="245.8333" y="132.9631">Creates a camt.056 financial message</text><line style="stroke:#666;stroke-width:1.0416666666666667" x1="317.7083" x2="361.4583" y1="193.099" y2="193.099"/><line style="stroke:#666;stroke-width:1.0416666666666667" x1="317.7083" x2="317.7083" y1="193.099" y2="206.6406"/><line style="stroke:#666;stroke-width:1.0416666666666667" x1="317.7083" x2="360.4167" y1="206.6406" y2="206.6406"/><polygon fill="#666666" points="352.0833,202.474,362.5,206.6406,352.0833,210.8073,356.25,206.6406" style="stroke:#666;stroke-width:1.0416666666666667"/><text fill="#F5F5F5" font-family="&quot;Graphik LCG&quot;" font-size="12.5" lengthAdjust="spacing" textLength="330.2083" x="22.9167" y="179.9357">Creating a camt.056 financial message on the server side</text><path d="M227.0833,230.599 L227.0833,252.474 A10.4167,10.4167 0 0 0 237.5,262.8906 L485.4167,262.8906 A10.4167,10.4167 0 0 0 495.8333,252.474 L495.8333,230.599 L485.4167,220.1823 L237.5,220.1823 A10.4167,10.4167 0 0 0 227.0833,230.599 " fill="url(#g1cute1h9ki36v0)" style="stroke:#181818;stroke-width:.5208333333333334"/><path d="M485.4167,220.1823 L485.4167,225.3906 A5.2083,5.2083 0 0 0 490.625,230.599 L495.8333,230.599 L485.4167,220.1823 " fill="url(#g1cute1h9ki36v0)" style="stroke:#181818;stroke-width:.5208333333333334"/><text fill="#85C6FF" font-family="&quot;Graphik LCG&quot;" font-size="12.5" lengthAdjust="spacing" textLength="230.2083" x="241.6667" y="246.7">Generates the “unsignedPayload” object</text><line style="stroke:#666;stroke-width:1.0416666666666667" x1="317.7083" x2="361.4583" y1="306.8359" y2="306.8359"/><line style="stroke:#666;stroke-width:1.0416666666666667" x1="317.7083" x2="317.7083" y1="306.8359" y2="320.3776"/><line style="stroke:#666;stroke-width:1.0416666666666667" x1="317.7083" x2="360.4167" y1="320.3776" y2="320.3776"/><polygon fill="#666666" points="352.0833,316.2109,362.5,320.3776,352.0833,324.5443,356.25,320.3776" style="stroke:#666;stroke-width:1.0416666666666667"/><text fill="#F5F5F5" font-family="&quot;Graphik LCG&quot;" font-size="12.5" lengthAdjust="spacing" textLength="215.625" x="137.5" y="293.6727">Payload generation on the server side</text><path d="M144.7917,344.3359 L144.7917,366.2109 A10.4167,10.4167 0 0 0 155.2083,376.6276 L566.6667,376.6276 A10.4167,10.4167 0 0 0 577.0833,366.2109 L577.0833,344.3359 L566.6667,333.9193 L155.2083,333.9193 A10.4167,10.4167 0 0 0 144.7917,344.3359 " fill="url(#g1cute1h9ki36v0)" style="stroke:#181818;stroke-width:.5208333333333334"/><path d="M566.6667,333.9193 L566.6667,339.1276 A5.2083,5.2083 0 0 0 571.875,344.3359 L577.0833,344.3359 L566.6667,333.9193 " fill="url(#g1cute1h9ki36v0)" style="stroke:#181818;stroke-width:.5208333333333334"/><text fill="#85C6FF" font-family="&quot;Graphik LCG&quot;" font-size="12.5" lengthAdjust="spacing" textLength="393.75" x="159.375" y="360.437">Sends a camt.056 financial message in base64 encoding for signing</text><polygon fill="#666666" points="1236.9792,447.8516,1247.3958,452.0182,1236.9792,456.1849,1241.1458,452.0182" style="stroke:#666;stroke-width:1.0416666666666667"/><line style="stroke:#666;stroke-width:1.0416666666666667" x1="361.4583" x2="1243.2292" y1="452.0182" y2="452.0182"/><text fill="#F5F5F5" font-family="&quot;Graphik LCG&quot;" font-size="12.5" lengthAdjust="spacing" textLength="122.9167" x="742.4479" y="407.4097">POST /sign/message</text><text fill="#F5F5F5" font-family="&quot;Graphik LCG&quot;" font-size="12.5" lengthAdjust="spacing" textLength="3.125" x="803.9063" y="423.1323"> </text><text fill="#F5F5F5" font-family="&quot;Graphik LCG&quot;" font-size="12.5" lengthAdjust="spacing" textLength="263.5417" x="673.6979" y="438.855">Payload: unsignedPayload {base64 camt.056}</text><path d="M218.75,475.9766 L218.75,497.8516 A10.4167,10.4167 0 0 0 229.1667,508.2682 L492.7083,508.2682 A10.4167,10.4167 0 0 0 503.125,497.8516 L503.125,475.9766 L492.7083,465.5599 L229.1667,465.5599 A10.4167,10.4167 0 0 0 218.75,475.9766 " fill="url(#g1cute1h9ki36v0)" style="stroke:#181818;stroke-width:.5208333333333334"/><path d="M492.7083,465.5599 L492.7083,470.7682 A5.2083,5.2083 0 0 0 497.9167,475.9766 L503.125,475.9766 L492.7083,465.5599 " fill="url(#g1cute1h9ki36v0)" style="stroke:#181818;stroke-width:.5208333333333334"/><text fill="#85C6FF" font-family="&quot;Graphik LCG&quot;" font-size="12.5" lengthAdjust="spacing" textLength="245.8333" x="233.3333" y="492.0776">Gets a signed camt.056 financial message</text><polygon fill="#666666" points="372.9167,579.4922,362.5,583.6589,372.9167,587.8255,368.75,583.6589" style="stroke:#666;stroke-width:1.0416666666666667"/><line style="stroke:#666;stroke-width:1.0416666666666667" x1="366.6667" x2="1248.4375" y1="583.6589" y2="583.6589"/><text fill="#F5F5F5" font-family="&quot;Graphik LCG&quot;" font-size="12.5" lengthAdjust="spacing" textLength="60.4167" x="773.6979" y="539.0503">Response</text><text fill="#F5F5F5" font-family="&quot;Graphik LCG&quot;" font-size="12.5" lengthAdjust="spacing" textLength="3.125" x="803.9063" y="554.7729"> </text><text fill="#F5F5F5" font-family="&quot;Graphik LCG&quot;" font-size="12.5" lengthAdjust="spacing" textLength="302.0833" x="654.4271" y="570.4956">Payload: signedMessagePayload {base64 camt.056}</text><path d="M160.4167,607.6172 L160.4167,629.4922 A10.4167,10.4167 0 0 0 170.8333,639.9089 L552.0833,639.9089 A10.4167,10.4167 0 0 0 562.5,629.4922 L562.5,607.6172 L552.0833,597.2005 L170.8333,597.2005 A10.4167,10.4167 0 0 0 160.4167,607.6172 " fill="url(#g1cute1h9ki36v0)" style="stroke:#181818;stroke-width:.5208333333333334"/><path d="M552.0833,597.2005 L552.0833,602.4089 A5.2083,5.2083 0 0 0 557.2917,607.6172 L562.5,607.6172 L552.0833,597.2005 " fill="url(#g1cute1h9ki36v0)" style="stroke:#181818;stroke-width:.5208333333333334"/><text fill="#85C6FF" font-family="&quot;Graphik LCG&quot;" font-size="12.5" lengthAdjust="spacing" textLength="363.5417" x="175" y="623.7183">Generates a Payment Cancelation Request “financialMessage”</text><line style="stroke:#666;stroke-width:1.0416666666666667" x1="317.7083" x2="361.4583" y1="683.8542" y2="683.8542"/><line style="stroke:#666;stroke-width:1.0416666666666667" x1="317.7083" x2="317.7083" y1="683.8542" y2="697.3958"/><line style="stroke:#666;stroke-width:1.0416666666666667" x1="317.7083" x2="360.4167" y1="697.3958" y2="697.3958"/><polygon fill="#666666" points="352.0833,693.2292,362.5,697.3958,352.0833,701.5625,356.25,697.3958" style="stroke:#666;stroke-width:1.0416666666666667"/><text fill="#F5F5F5" font-family="&quot;Graphik LCG&quot;" font-size="12.5" lengthAdjust="spacing" textLength="215.625" x="137.5" y="670.6909">Payload generation on the server side</text><path d="M228.125,721.3542 L228.125,743.2292 A10.4167,10.4167 0 0 0 238.5417,753.6458 L484.375,753.6458 A10.4167,10.4167 0 0 0 494.7917,743.2292 L494.7917,721.3542 L484.375,710.9375 L238.5417,710.9375 A10.4167,10.4167 0 0 0 228.125,721.3542 " fill="url(#g1cute1h9ki36v0)" style="stroke:#181818;stroke-width:.5208333333333334"/><path d="M484.375,710.9375 L484.375,716.1458 A5.2083,5.2083 0 0 0 489.5833,721.3542 L494.7917,721.3542 L484.375,710.9375 " fill="url(#g1cute1h9ki36v0)" style="stroke:#181818;stroke-width:.5208333333333334"/><text fill="#85C6FF" font-family="&quot;Graphik LCG&quot;" font-size="12.5" lengthAdjust="spacing" textLength="228.125" x="242.7083" y="737.4552">Sends a Payment Cancelation Request</text><polygon fill="#666666" points="955.7292,824.8698,966.1458,829.0365,955.7292,833.2031,959.8958,829.0365" style="stroke:#666;stroke-width:1.0416666666666667"/><line style="stroke:#666;stroke-width:1.0416666666666667" x1="361.4583" x2="961.9792" y1="829.0365" y2="829.0365"/><text fill="#F5F5F5" font-family="&quot;Graphik LCG&quot;" font-size="12.5" lengthAdjust="spacing" textLength="186.4583" x="570.0521" y="784.4279">POST /payments/message/send</text><text fill="#F5F5F5" font-family="&quot;Graphik LCG&quot;" font-size="12.5" lengthAdjust="spacing" textLength="3.125" x="663.2813" y="800.1506"> </text><text fill="#F5F5F5" font-family="&quot;Graphik LCG&quot;" font-size="12.5" lengthAdjust="spacing" textLength="397.9167" x="465.8854" y="815.8732">Payload: financialMessage {signedMessagePayload + message type}</text><polygon fill="#666666" points="1672.3958,871.8424,1682.8125,876.0091,1672.3958,880.1758,1676.5625,876.0091" style="stroke:#666;stroke-width:1.0416666666666667"/><line style="stroke:#666;stroke-width:1.0416666666666667" x1="968.2292" x2="1678.6458" y1="876.0091" y2="876.0091"/><text fill="#F5F5F5" font-family="&quot;Graphik LCG&quot;" font-size="12.5" lengthAdjust="spacing" textLength="144.7917" x="1254.1667" y="862.8459">Add message to the topic</text><path d="M245.8333,899.9674 L245.8333,921.8424 A10.4167,10.4167 0 0 0 256.25,932.2591 L466.6667,932.2591 A10.4167,10.4167 0 0 0 477.0833,921.8424 L477.0833,899.9674 L466.6667,889.5508 L256.25,889.5508 A10.4167,10.4167 0 0 0 245.8333,899.9674 " fill="url(#g1cute1h9ki36v0)" style="stroke:#181818;stroke-width:.5208333333333334"/><path d="M466.6667,889.5508 L466.6667,894.7591 A5.2083,5.2083 0 0 0 471.875,899.9674 L477.0833,899.9674 L466.6667,889.5508 " fill="url(#g1cute1h9ki36v0)" style="stroke:#181818;stroke-width:.5208333333333334"/><text fill="#85C6FF" font-family="&quot;Graphik LCG&quot;" font-size="12.5" lengthAdjust="spacing" textLength="192.7083" x="260.4167" y="916.0685">Gets camt.030 financial message</text><polygon fill="#666666" points="372.9167,1003.4831,362.5,1007.6497,372.9167,1011.8164,368.75,1007.6497" style="stroke:#666;stroke-width:1.0416666666666667"/><line style="stroke:#666;stroke-width:1.0416666666666667" x1="366.6667" x2="967.1875" y1="1007.6497" y2="1007.6497"/><text fill="#F5F5F5" font-family="&quot;Graphik LCG&quot;" font-size="12.5" lengthAdjust="spacing" textLength="60.4167" x="633.0729" y="963.0412">Response</text><text fill="#F5F5F5" font-family="&quot;Graphik LCG&quot;" font-size="12.5" lengthAdjust="spacing" textLength="3.125" x="663.2813" y="978.7638"> </text><text fill="#F5F5F5" font-family="&quot;Graphik LCG&quot;" font-size="12.5" lengthAdjust="spacing" textLength="264.5833" x="532.5521" y="994.4865">Payload: financialMessage {base64 camt.030}</text><polygon fill="#666666" points="1696.3542,1050.4557,1685.9375,1054.6224,1696.3542,1058.7891,1692.1875,1054.6224" style="stroke:#666;stroke-width:1.0416666666666667"/><polygon fill="#666666" points="2295.3125,1050.4557,2305.7292,1054.6224,2295.3125,1058.7891,2299.4792,1054.6224" style="stroke:#666;stroke-width:1.0416666666666667"/><line style="stroke:#666;stroke-width:1.0416666666666667" x1="1690.1042" x2="2301.5625" y1="1054.6224" y2="1054.6224"/><text fill="#F5F5F5" font-family="&quot;Graphik LCG&quot;" font-size="12.5" lengthAdjust="spacing" textLength="130.2083" x="1931.25" y="1041.4591">Subscribed to the topic</text><path d="M535.4167,1078.5807 L535.4167,1100.4557 A10.4167,10.4167 0 0 0 545.8333,1110.8724 L900,1110.8724 A10.4167,10.4167 0 0 0 910.4167,1100.4557 L910.4167,1078.5807 L900,1068.1641 L545.8333,1068.1641 A10.4167,10.4167 0 0 0 535.4167,1078.5807 " fill="url(#g1cute1h9ki36v0)" style="stroke:#181818;stroke-width:.5208333333333334"/><path d="M900,1068.1641 L900,1073.3724 A5.2083,5.2083 0 0 0 905.2083,1078.5807 L910.4167,1078.5807 L900,1068.1641 " fill="url(#g1cute1h9ki36v0)" style="stroke:#181818;stroke-width:.5208333333333334"/><text fill="#85C6FF" font-family="&quot;Graphik LCG&quot;" font-size="12.5" lengthAdjust="spacing" textLength="336.4583" x="550" y="1094.6818">Sends a query to extract the Payment Cancelation Request</text><polygon fill="#666666" points="2295.3125,1182.0964,2305.7292,1186.263,2295.3125,1190.4297,2299.4792,1186.263" style="stroke:#666;stroke-width:1.0416666666666667"/><line style="stroke:#666;stroke-width:1.0416666666666667" x1="722.9167" x2="2301.5625" y1="1186.263" y2="1186.263"/><text fill="#F5F5F5" font-family="&quot;Graphik LCG&quot;" font-size="12.5" lengthAdjust="spacing" textLength="143.75" x="1441.9271" y="1141.6545">GET /gateway/messages</text><text fill="#F5F5F5" font-family="&quot;Graphik LCG&quot;" font-size="12.5" lengthAdjust="spacing" textLength="3.125" x="1513.8021" y="1157.3771"> </text><text fill="#F5F5F5" font-family="&quot;Graphik LCG&quot;" font-size="12.5" lengthAdjust="spacing" textLength="301.0417" x="1364.8438" y="1173.0998">with the “payment” argument in the query parameters</text><path d="M589.5833,1210.2214 L589.5833,1232.0964 A10.4167,10.4167 0 0 0 600,1242.513 L845.8333,1242.513 A10.4167,10.4167 0 0 0 856.25,1232.0964 L856.25,1210.2214 L845.8333,1199.8047 L600,1199.8047 A10.4167,10.4167 0 0 0 589.5833,1210.2214 " fill="url(#g1cute1h9ki36v0)" style="stroke:#181818;stroke-width:.5208333333333334"/><path d="M845.8333,1199.8047 L845.8333,1205.013 A5.2083,5.2083 0 0 0 851.0417,1210.2214 L856.25,1210.2214 L845.8333,1199.8047 " fill="url(#g1cute1h9ki36v0)" style="stroke:#181818;stroke-width:.5208333333333334"/><text fill="#85C6FF" font-family="&quot;Graphik LCG&quot;" font-size="12.5" lengthAdjust="spacing" textLength="228.125" x="604.1667" y="1226.3224">Gets the Payment Cancelation Request</text><polygon fill="#666666" points="734.375,1313.737,723.9583,1317.9036,734.375,1322.0703,730.2083,1317.9036" style="stroke:#666;stroke-width:1.0416666666666667"/><line style="stroke:#666;stroke-width:1.0416666666666667" x1="728.125" x2="2306.7708" y1="1317.9036" y2="1317.9036"/><text fill="#F5F5F5" font-family="&quot;Graphik LCG&quot;" font-size="12.5" lengthAdjust="spacing" textLength="60.4167" x="1483.5938" y="1273.2951">Response</text><text fill="#F5F5F5" font-family="&quot;Graphik LCG&quot;" font-size="12.5" lengthAdjust="spacing" textLength="3.125" x="1513.8021" y="1289.0177"> </text><text fill="#F5F5F5" font-family="&quot;Graphik LCG&quot;" font-size="12.5" lengthAdjust="spacing" textLength="264.5833" x="1383.0729" y="1304.7404">Payload: financialMessage {base64 camt.056}</text><path d="M592.7083,1341.862 L592.7083,1363.737 A10.4167,10.4167 0 0 0 603.125,1374.1536 L842.7083,1374.1536 A10.4167,10.4167 0 0 0 853.125,1363.737 L853.125,1341.862 L842.7083,1331.4453 L603.125,1331.4453 A10.4167,10.4167 0 0 0 592.7083,1341.862 " fill="url(#g1cute1h9ki36v0)" style="stroke:#181818;stroke-width:.5208333333333334"/><path d="M842.7083,1331.4453 L842.7083,1336.6536 A5.2083,5.2083 0 0 0 847.9167,1341.862 L853.125,1341.862 L842.7083,1331.4453 " fill="url(#g1cute1h9ki36v0)" style="stroke:#181818;stroke-width:.5208333333333334"/><text fill="#85C6FF" font-family="&quot;Graphik LCG&quot;" font-size="12.5" lengthAdjust="spacing" textLength="221.875" x="607.2917" y="1357.9631">Creates a pacs.004 financial message</text><line style="stroke:#666;stroke-width:1.0416666666666667" x1="679.1667" x2="722.9167" y1="1418.099" y2="1418.099"/><line style="stroke:#666;stroke-width:1.0416666666666667" x1="679.1667" x2="679.1667" y1="1418.099" y2="1431.6406"/><line style="stroke:#666;stroke-width:1.0416666666666667" x1="679.1667" x2="721.875" y1="1431.6406" y2="1431.6406"/><polygon fill="#666666" points="713.5417,1427.474,723.9583,1431.6406,713.5417,1435.8073,717.7083,1431.6406" style="stroke:#666;stroke-width:1.0416666666666667"/><text fill="#F5F5F5" font-family="&quot;Graphik LCG&quot;" font-size="12.5" lengthAdjust="spacing" textLength="330.2083" x="384.375" y="1404.9357">Creating a pacs.004 financial message on the server side</text><path d="M588.5417,1455.599 L588.5417,1477.474 A10.4167,10.4167 0 0 0 598.9583,1487.8906 L846.875,1487.8906 A10.4167,10.4167 0 0 0 857.2917,1477.474 L857.2917,1455.599 L846.875,1445.1823 L598.9583,1445.1823 A10.4167,10.4167 0 0 0 588.5417,1455.599 " fill="url(#g1cute1h9ki36v0)" style="stroke:#181818;stroke-width:.5208333333333334"/><path d="M846.875,1445.1823 L846.875,1450.3906 A5.2083,5.2083 0 0 0 852.0833,1455.599 L857.2917,1455.599 L846.875,1445.1823 " fill="url(#g1cute1h9ki36v0)" style="stroke:#181818;stroke-width:.5208333333333334"/><text fill="#85C6FF" font-family="&quot;Graphik LCG&quot;" font-size="12.5" lengthAdjust="spacing" textLength="230.2083" x="603.125" y="1471.7">Generates the “unsignedPayload” object</text><line style="stroke:#666;stroke-width:1.0416666666666667" x1="679.1667" x2="722.9167" y1="1531.8359" y2="1531.8359"/><line style="stroke:#666;stroke-width:1.0416666666666667" x1="679.1667" x2="679.1667" y1="1531.8359" y2="1545.3776"/><line style="stroke:#666;stroke-width:1.0416666666666667" x1="679.1667" x2="721.875" y1="1545.3776" y2="1545.3776"/><polygon fill="#666666" points="713.5417,1541.2109,723.9583,1545.3776,713.5417,1549.5443,717.7083,1545.3776" style="stroke:#666;stroke-width:1.0416666666666667"/><text fill="#F5F5F5" font-family="&quot;Graphik LCG&quot;" font-size="12.5" lengthAdjust="spacing" textLength="215.625" x="498.9583" y="1518.6727">Payload generation on the server side</text><path d="M506.25,1569.3359 L506.25,1591.2109 A10.4167,10.4167 0 0 0 516.6667,1601.6276 L928.125,1601.6276 A10.4167,10.4167 0 0 0 938.5417,1591.2109 L938.5417,1569.3359 L928.125,1558.9193 L516.6667,1558.9193 A10.4167,10.4167 0 0 0 506.25,1569.3359 " fill="url(#g1cute1h9ki36v0)" style="stroke:#181818;stroke-width:.5208333333333334"/><path d="M928.125,1558.9193 L928.125,1564.1276 A5.2083,5.2083 0 0 0 933.3333,1569.3359 L938.5417,1569.3359 L928.125,1558.9193 " fill="url(#g1cute1h9ki36v0)" style="stroke:#181818;stroke-width:.5208333333333334"/><text fill="#85C6FF" font-family="&quot;Graphik LCG&quot;" font-size="12.5" lengthAdjust="spacing" textLength="393.75" x="520.8333" y="1585.437">Sends a pacs.004 financial message in base64 encoding for signing</text><polygon fill="#666666" points="2548.4375,1672.8516,2558.8542,1677.0182,2548.4375,1681.1849,2552.6042,1677.0182" style="stroke:#666;stroke-width:1.0416666666666667"/><line style="stroke:#666;stroke-width:1.0416666666666667" x1="722.9167" x2="2554.6875" y1="1677.0182" y2="1677.0182"/><text fill="#F5F5F5" font-family="&quot;Graphik LCG&quot;" font-size="12.5" lengthAdjust="spacing" textLength="122.9167" x="1578.9063" y="1632.4097">POST /sign/message</text><text fill="#F5F5F5" font-family="&quot;Graphik LCG&quot;" font-size="12.5" lengthAdjust="spacing" textLength="3.125" x="1640.3646" y="1648.1323"> </text><text fill="#F5F5F5" font-family="&quot;Graphik LCG&quot;" font-size="12.5" lengthAdjust="spacing" textLength="263.5417" x="1510.1563" y="1663.855">Payload: unsignedPayload {base64 pacs.004}</text><path d="M580.2083,1700.9766 L580.2083,1722.8516 A10.4167,10.4167 0 0 0 590.625,1733.2682 L854.1667,1733.2682 A10.4167,10.4167 0 0 0 864.5833,1722.8516 L864.5833,1700.9766 L854.1667,1690.5599 L590.625,1690.5599 A10.4167,10.4167 0 0 0 580.2083,1700.9766 " fill="url(#g1cute1h9ki36v0)" style="stroke:#181818;stroke-width:.5208333333333334"/><path d="M854.1667,1690.5599 L854.1667,1695.7682 A5.2083,5.2083 0 0 0 859.375,1700.9766 L864.5833,1700.9766 L854.1667,1690.5599 " fill="url(#g1cute1h9ki36v0)" style="stroke:#181818;stroke-width:.5208333333333334"/><text fill="#85C6FF" font-family="&quot;Graphik LCG&quot;" font-size="12.5" lengthAdjust="spacing" textLength="245.8333" x="594.7917" y="1717.0776">Gets a signed pacs.004 financial message</text><polygon fill="#666666" points="734.375,1804.4922,723.9583,1808.6589,734.375,1812.8255,730.2083,1808.6589" style="stroke:#666;stroke-width:1.0416666666666667"/><line style="stroke:#666;stroke-width:1.0416666666666667" x1="728.125" x2="2559.8958" y1="1808.6589" y2="1808.6589"/><text fill="#F5F5F5" font-family="&quot;Graphik LCG&quot;" font-size="12.5" lengthAdjust="spacing" textLength="60.4167" x="1610.1563" y="1764.0503">Response</text><text fill="#F5F5F5" font-family="&quot;Graphik LCG&quot;" font-size="12.5" lengthAdjust="spacing" textLength="3.125" x="1640.3646" y="1779.7729"> </text><text fill="#F5F5F5" font-family="&quot;Graphik LCG&quot;" font-size="12.5" lengthAdjust="spacing" textLength="302.0833" x="1490.8854" y="1795.4956">Payload: signedMessagePayload {base64 pacs.004}</text><path d="M587.5,1832.6172 L587.5,1854.4922 A10.4167,10.4167 0 0 0 597.9167,1864.9089 L846.875,1864.9089 A10.4167,10.4167 0 0 0 857.2917,1854.4922 L857.2917,1832.6172 L846.875,1822.2005 L597.9167,1822.2005 A10.4167,10.4167 0 0 0 587.5,1832.6172 " fill="url(#g1cute1h9ki36v0)" style="stroke:#181818;stroke-width:.5208333333333334"/><path d="M846.875,1822.2005 L846.875,1827.4089 A5.2083,5.2083 0 0 0 852.0833,1832.6172 L857.2917,1832.6172 L846.875,1822.2005 " fill="url(#g1cute1h9ki36v0)" style="stroke:#181818;stroke-width:.5208333333333334"/><text fill="#85C6FF" font-family="&quot;Graphik LCG&quot;" font-size="12.5" lengthAdjust="spacing" textLength="231.25" x="602.0833" y="1848.7183">Generates the “financialMessage” object</text><line style="stroke:#666;stroke-width:1.0416666666666667" x1="679.1667" x2="722.9167" y1="1908.8542" y2="1908.8542"/><line style="stroke:#666;stroke-width:1.0416666666666667" x1="679.1667" x2="679.1667" y1="1908.8542" y2="1922.3958"/><line style="stroke:#666;stroke-width:1.0416666666666667" x1="679.1667" x2="721.875" y1="1922.3958" y2="1922.3958"/><polygon fill="#666666" points="713.5417,1918.2292,723.9583,1922.3958,713.5417,1926.5625,717.7083,1922.3958" style="stroke:#666;stroke-width:1.0416666666666667"/><text fill="#F5F5F5" font-family="&quot;Graphik LCG&quot;" font-size="12.5" lengthAdjust="spacing" textLength="215.625" x="498.9583" y="1895.6909">Payload generation on the server side</text><path d="M594.7917,1946.3542 L594.7917,1968.2292 A10.4167,10.4167 0 0 0 605.2083,1978.6458 L839.5833,1978.6458 A10.4167,10.4167 0 0 0 850,1968.2292 L850,1946.3542 L839.5833,1935.9375 L605.2083,1935.9375 A10.4167,10.4167 0 0 0 594.7917,1946.3542 " fill="url(#g1cute1h9ki36v0)" style="stroke:#181818;stroke-width:.5208333333333334"/><path d="M839.5833,1935.9375 L839.5833,1941.1458 A5.2083,5.2083 0 0 0 844.7917,1946.3542 L850,1946.3542 L839.5833,1935.9375 " fill="url(#g1cute1h9ki36v0)" style="stroke:#181818;stroke-width:.5208333333333334"/><text fill="#85C6FF" font-family="&quot;Graphik LCG&quot;" font-size="12.5" lengthAdjust="spacing" textLength="216.6667" x="609.375" y="1962.4552">Sends a Payment Request Response</text><polygon fill="#666666" points="2829.6875,2049.8698,2840.1042,2054.0365,2829.6875,2058.2031,2833.8542,2054.0365" style="stroke:#666;stroke-width:1.0416666666666667"/><line style="stroke:#666;stroke-width:1.0416666666666667" x1="722.9167" x2="2835.9375" y1="2054.0365" y2="2054.0365"/><text fill="#F5F5F5" font-family="&quot;Graphik LCG&quot;" font-size="12.5" lengthAdjust="spacing" textLength="184.375" x="1688.8021" y="2009.4279">POST /payments/message/reply</text><text fill="#F5F5F5" font-family="&quot;Graphik LCG&quot;" font-size="12.5" lengthAdjust="spacing" textLength="3.125" x="1780.9896" y="2025.1506"> </text><text fill="#F5F5F5" font-family="&quot;Graphik LCG&quot;" font-size="12.5" lengthAdjust="spacing" textLength="397.9167" x="1583.5938" y="2040.8732">Payload: financialMessage {signedMessagePayload + message type}</text><polygon fill="#666666" points="1696.3542,2096.8424,1685.9375,2101.0091,1696.3542,2105.1758,1692.1875,2101.0091" style="stroke:#666;stroke-width:1.0416666666666667"/><line style="stroke:#666;stroke-width:1.0416666666666667" x1="1690.1042" x2="2841.1458" y1="2101.0091" y2="2101.0091"/><text fill="#F5F5F5" font-family="&quot;Graphik LCG&quot;" font-size="12.5" lengthAdjust="spacing" textLength="144.7917" x="2191.1458" y="2087.8459">Add message to the topic</text><path d="M607.2917,2124.9674 L607.2917,2146.8424 A10.4167,10.4167 0 0 0 617.7083,2157.2591 L828.125,2157.2591 A10.4167,10.4167 0 0 0 838.5417,2146.8424 L838.5417,2124.9674 L828.125,2114.5508 L617.7083,2114.5508 A10.4167,10.4167 0 0 0 607.2917,2124.9674 " fill="url(#g1cute1h9ki36v0)" style="stroke:#181818;stroke-width:.5208333333333334"/><path d="M828.125,2114.5508 L828.125,2119.7591 A5.2083,5.2083 0 0 0 833.3333,2124.9674 L838.5417,2124.9674 L828.125,2114.5508 " fill="url(#g1cute1h9ki36v0)" style="stroke:#181818;stroke-width:.5208333333333334"/><text fill="#85C6FF" font-family="&quot;Graphik LCG&quot;" font-size="12.5" lengthAdjust="spacing" textLength="192.7083" x="621.875" y="2141.0685">Gets pacs.002 financial message</text><polygon fill="#666666" points="734.375,2228.4831,723.9583,2232.6497,734.375,2236.8164,730.2083,2232.6497" style="stroke:#666;stroke-width:1.0416666666666667"/><line style="stroke:#666;stroke-width:1.0416666666666667" x1="728.125" x2="2841.1458" y1="2232.6497" y2="2232.6497"/><text fill="#F5F5F5" font-family="&quot;Graphik LCG&quot;" font-size="12.5" lengthAdjust="spacing" textLength="60.4167" x="1750.7813" y="2188.0412">Response</text><text fill="#F5F5F5" font-family="&quot;Graphik LCG&quot;" font-size="12.5" lengthAdjust="spacing" textLength="3.125" x="1780.9896" y="2203.7638"> </text><text fill="#F5F5F5" font-family="&quot;Graphik LCG&quot;" font-size="12.5" lengthAdjust="spacing" textLength="264.5833" x="1650.2604" y="2219.4865">Payload: financialMessage {base64 pacs.002}</text><path d="M1967.7083,2256.6081 L1967.7083,2278.4831 A10.4167,10.4167 0 0 0 1978.125,2288.8997 L2265.625,2288.8997 A10.4167,10.4167 0 0 0 2276.0417,2278.4831 L2276.0417,2256.6081 L2265.625,2246.1914 L1978.125,2246.1914 A10.4167,10.4167 0 0 0 1967.7083,2256.6081 " fill="url(#g1cute1h9ki36v0)" style="stroke:#181818;stroke-width:.5208333333333334"/><path d="M2265.625,2246.1914 L2265.625,2251.3997 A5.2083,5.2083 0 0 0 2270.8333,2256.6081 L2276.0417,2256.6081 L2265.625,2246.1914 " fill="url(#g1cute1h9ki36v0)" style="stroke:#181818;stroke-width:.5208333333333334"/><text fill="#85C6FF" font-family="&quot;Graphik LCG&quot;" font-size="12.5" lengthAdjust="spacing" textLength="269.7917" x="1982.2917" y="2272.7091">Creates and sends a transaction to the network</text><line style="stroke:#666;stroke-width:1.0416666666666667" x1="2078.6458" x2="2122.3958" y1="2332.8451" y2="2332.8451"/><line style="stroke:#666;stroke-width:1.0416666666666667" x1="2078.6458" x2="2078.6458" y1="2332.8451" y2="2346.3867"/><line style="stroke:#666;stroke-width:1.0416666666666667" x1="2078.6458" x2="2121.3542" y1="2346.3867" y2="2346.3867"/><polygon fill="#666666" points="2113.0208,2342.2201,2123.4375,2346.3867,2113.0208,2350.5534,2117.1875,2346.3867" style="stroke:#666;stroke-width:1.0416666666666667"/><text fill="#F5F5F5" font-family="&quot;Graphik LCG&quot;" font-size="12.5" lengthAdjust="spacing" textLength="227.0833" x="1886.9792" y="2319.6818">Extracts IsSettled central account address</text><line style="stroke:#666;stroke-width:1.0416666666666667" x1="2078.6458" x2="2122.3958" y1="2393.3594" y2="2393.3594"/><line style="stroke:#666;stroke-width:1.0416666666666667" x1="2078.6458" x2="2078.6458" y1="2393.3594" y2="2406.901"/><line style="stroke:#666;stroke-width:1.0416666666666667" x1="2078.6458" x2="2121.3542" y1="2406.901" y2="2406.901"/><polygon fill="#666666" points="2113.0208,2402.7344,2123.4375,2406.901,2113.0208,2411.0677,2117.1875,2406.901" style="stroke:#666;stroke-width:1.0416666666666667"/><text fill="#F5F5F5" font-family="&quot;Graphik LCG&quot;" font-size="12.5" lengthAdjust="spacing" textLength="406.25" x="1707.8125" y="2380.1961">Extracts the emission account address of the Member’s BFI and the SFI</text><line style="stroke:#666;stroke-width:1.0416666666666667" x1="2078.6458" x2="2122.3958" y1="2453.8737" y2="2453.8737"/><line style="stroke:#666;stroke-width:1.0416666666666667" x1="2078.6458" x2="2078.6458" y1="2453.8737" y2="2467.4154"/><line style="stroke:#666;stroke-width:1.0416666666666667" x1="2078.6458" x2="2121.3542" y1="2467.4154" y2="2467.4154"/><polygon fill="#666666" points="2113.0208,2463.2487,2123.4375,2467.4154,2113.0208,2471.582,2117.1875,2467.4154" style="stroke:#666;stroke-width:1.0416666666666667"/><text fill="#F5F5F5" font-family="&quot;Graphik LCG&quot;" font-size="12.5" lengthAdjust="spacing" textLength="265.625" x="1848.4375" y="2440.7104">Generates a transaction to send to the network</text><polygon fill="#666666" points="2548.4375,2510.2214,2558.8542,2514.388,2548.4375,2518.5547,2552.6042,2514.388" style="stroke:#666;stroke-width:1.0416666666666667"/><line style="stroke:#666;stroke-width:1.0416666666666667" x1="2122.3958" x2="2554.6875" y1="2514.388" y2="2514.388"/><text fill="#F5F5F5" font-family="&quot;Graphik LCG&quot;" font-size="12.5" lengthAdjust="spacing" textLength="178.125" x="2252.6042" y="2501.2248">Transaction Signature Request</text><polygon fill="#666666" points="2133.8542,2557.194,2123.4375,2561.3607,2133.8542,2565.5273,2129.6875,2561.3607" style="stroke:#666;stroke-width:1.0416666666666667"/><line style="stroke:#666;stroke-width:1.0416666666666667" x1="2127.6042" x2="2559.8958" y1="2561.3607" y2="2561.3607"/><text fill="#F5F5F5" font-family="&quot;Graphik LCG&quot;" font-size="12.5" lengthAdjust="spacing" textLength="226.0417" x="2228.6458" y="2548.1974">Signed transaction by the SFI secret key</text><line style="stroke:#666;stroke-width:1.0416666666666667" x1="2078.6458" x2="2122.3958" y1="2608.3333" y2="2608.3333"/><line style="stroke:#666;stroke-width:1.0416666666666667" x1="2078.6458" x2="2078.6458" y1="2608.3333" y2="2621.875"/><line style="stroke:#666;stroke-width:1.0416666666666667" x1="2078.6458" x2="2121.3542" y1="2621.875" y2="2621.875"/><polygon fill="#666666" points="2113.0208,2617.7083,2123.4375,2621.875,2113.0208,2626.0417,2117.1875,2621.875" style="stroke:#666;stroke-width:1.0416666666666667"/><text fill="#F5F5F5" font-family="&quot;Graphik LCG&quot;" font-size="12.5" lengthAdjust="spacing" textLength="288.5417" x="1825.5208" y="2595.1701">Signing a transaction by the IsSettled central account</text><polygon fill="#666666" points="3120.8333,2664.681,3131.25,2668.8477,3120.8333,2673.0143,3125,2668.8477" style="stroke:#666;stroke-width:1.0416666666666667"/><line style="stroke:#666;stroke-width:1.0416666666666667" x1="2122.3958" x2="3127.0833" y1="2668.8477" y2="2668.8477"/><text fill="#F5F5F5" font-family="&quot;Graphik LCG&quot;" font-size="12.5" lengthAdjust="spacing" textLength="113.5417" x="2571.0938" y="2655.6844">Settlement Request</text><polygon fill="#666666" points="2133.8542,2711.6536,2123.4375,2715.8203,2133.8542,2719.987,2129.6875,2715.8203" style="stroke:#666;stroke-width:1.0416666666666667"/><line style="stroke:#666;stroke-width:1.0416666666666667" x1="2127.6042" x2="3132.2917" y1="2715.8203" y2="2715.8203"/><text fill="#F5F5F5" font-family="&quot;Graphik LCG&quot;" font-size="12.5" lengthAdjust="spacing" textLength="263.5417" x="2496.0938" y="2702.6571">Transaction Identifier in the Distributed Ledger</text><line style="stroke:#666;stroke-width:1.0416666666666667" x1="2078.6458" x2="2122.3958" y1="2762.793" y2="2762.793"/><line style="stroke:#666;stroke-width:1.0416666666666667" x1="2078.6458" x2="2078.6458" y1="2762.793" y2="2776.3346"/><line style="stroke:#666;stroke-width:1.0416666666666667" x1="2078.6458" x2="2121.3542" y1="2776.3346" y2="2776.3346"/><polygon fill="#666666" points="2113.0208,2772.168,2123.4375,2776.3346,2113.0208,2780.5013,2117.1875,2776.3346" style="stroke:#666;stroke-width:1.0416666666666667"/><text fill="#F5F5F5" font-family="&quot;Graphik LCG&quot;" font-size="12.5" lengthAdjust="spacing" textLength="362.5" x="1751.5625" y="2749.6297">Changes the status of a previously made payment to “canceled”</text><polygon fill="#666666" points="1514.0625,2819.1406,1503.6458,2823.3073,1514.0625,2827.474,1509.8958,2823.3073" style="stroke:#666;stroke-width:1.0416666666666667"/><polygon fill="#666666" points="1672.3958,2819.1406,1682.8125,2823.3073,1672.3958,2827.474,1676.5625,2823.3073" style="stroke:#666;stroke-width:1.0416666666666667"/><line style="stroke:#666;stroke-width:1.0416666666666667" x1="1507.8125" x2="1678.6458" y1="2823.3073" y2="2823.3073"/><text fill="#F5F5F5" font-family="&quot;Graphik LCG&quot;" font-size="12.5" lengthAdjust="spacing" textLength="130.2083" x="1528.6458" y="2810.144">Subscribed to the topic</text><path d="M132.2917,2847.2656 L132.2917,2869.1406 A10.4167,10.4167 0 0 0 142.7083,2879.5573 L579.1667,2879.5573 A10.4167,10.4167 0 0 0 589.5833,2869.1406 L589.5833,2847.2656 L579.1667,2836.849 L142.7083,2836.849 A10.4167,10.4167 0 0 0 132.2917,2847.2656 " fill="url(#g1cute1h9ki36v0)" style="stroke:#181818;stroke-width:.5208333333333334"/><path d="M579.1667,2836.849 L579.1667,2842.0573 A5.2083,5.2083 0 0 0 584.375,2847.2656 L589.5833,2847.2656 L579.1667,2836.849 " fill="url(#g1cute1h9ki36v0)" style="stroke:#181818;stroke-width:.5208333333333334"/><text fill="#85C6FF" font-family="&quot;Graphik LCG&quot;" font-size="12.5" lengthAdjust="spacing" textLength="418.75" x="146.875" y="2863.3667">Sends a query to extract a response to the Payment Cancelation Request</text><polygon fill="#666666" points="1490.1042,2950.7813,1500.5208,2954.9479,1490.1042,2959.1146,1494.2708,2954.9479" style="stroke:#666;stroke-width:1.0416666666666667"/><line style="stroke:#666;stroke-width:1.0416666666666667" x1="361.4583" x2="1496.3542" y1="2954.9479" y2="2954.9479"/><text fill="#F5F5F5" font-family="&quot;Graphik LCG&quot;" font-size="12.5" lengthAdjust="spacing" textLength="143.75" x="858.5938" y="2910.3394">GET /gateway/messages</text><text fill="#F5F5F5" font-family="&quot;Graphik LCG&quot;" font-size="12.5" lengthAdjust="spacing" textLength="3.125" x="930.4688" y="2926.062"> </text><text fill="#F5F5F5" font-family="&quot;Graphik LCG&quot;" font-size="12.5" lengthAdjust="spacing" textLength="322.9167" x="770.5729" y="2941.7847">with the “transactions” argument in the query parameters</text><path d="M220.8333,2978.9063 L220.8333,3000.7813 A10.4167,10.4167 0 0 0 231.25,3011.1979 L490.625,3011.1979 A10.4167,10.4167 0 0 0 501.0417,3000.7813 L501.0417,2978.9063 L490.625,2968.4896 L231.25,2968.4896 A10.4167,10.4167 0 0 0 220.8333,2978.9063 " fill="url(#g1cute1h9ki36v0)" style="stroke:#181818;stroke-width:.5208333333333334"/><path d="M490.625,2968.4896 L490.625,2973.6979 A5.2083,5.2083 0 0 0 495.8333,2978.9063 L501.0417,2978.9063 L490.625,2968.4896 " fill="url(#g1cute1h9ki36v0)" style="stroke:#181818;stroke-width:.5208333333333334"/><text fill="#85C6FF" font-family="&quot;Graphik LCG&quot;" font-size="12.5" lengthAdjust="spacing" textLength="241.6667" x="235.4167" y="2995.0073">Gets the transaction history of the payment</text><polygon fill="#666666" points="372.9167,3082.4219,362.5,3086.5885,372.9167,3090.7552,368.75,3086.5885" style="stroke:#666;stroke-width:1.0416666666666667"/><line style="stroke:#666;stroke-width:1.0416666666666667" x1="366.6667" x2="1501.5625" y1="3086.5885" y2="3086.5885"/><text fill="#F5F5F5" font-family="&quot;Graphik LCG&quot;" font-size="12.5" lengthAdjust="spacing" textLength="60.4167" x="900.2604" y="3041.98">Response</text><text fill="#F5F5F5" font-family="&quot;Graphik LCG&quot;" font-size="12.5" lengthAdjust="spacing" textLength="3.125" x="930.4688" y="3057.7026"> </text><text fill="#F5F5F5" font-family="&quot;Graphik LCG&quot;" font-size="12.5" lengthAdjust="spacing" textLength="244.7917" x="809.6354" y="3073.4253">Payload: {Transaction IDs from the Ledger}</text></g></svg>