<?xml version="1.0" encoding="UTF-8" standalone="no"?><svg xmlns="http://www.w3.org/2000/svg" xmlns:xlink="http://www.w3.org/1999/xlink" contentStyleType="text/css" height="3162.5px" preserveAspectRatio="none" style="width:3204px;height:3162px;background-color:#141414" version="1.1" viewBox="0 0 3204 3162" width="3204.1667px" zoomAndPan="magnify"><defs><linearGradient id="g1l0gew5sougag0" x1="50%" x2="50%" y1="0%" y2="100%"><stop offset="0%" stop-color="#003666"/><stop offset="100%" stop-color="#003666"/></linearGradient></defs><g><rect fill="#292929" height="3150.2279" rx="10.4167" ry="10.4167" style="stroke:#959595;stroke-width:.5208333333333334" width="2156.25" x="820.8333" y="6.25"/><text fill="#85C6FF" font-family="&quot;Graphik LCG&quot;" font-size="12.5" lengthAdjust="spacing" textLength="92.7083" x="1852.6042" y="27.5594">IsSettled Services</text><line style="stroke:#666;stroke-width:.5208333333333334;stroke-dasharray:5,5" x1="355.2083" x2="355.2083" y1="90.8203" y2="3105.3385"/><line style="stroke:#666;stroke-width:.5208333333333334;stroke-dasharray:5,5" x1="716.6667" x2="716.6667" y1="90.8203" y2="3105.3385"/><line style="stroke:#666;stroke-width:.5208333333333334;stroke-dasharray:5,5" x1="961.4583" x2="961.4583" y1="90.8203" y2="3105.3385"/><line style="stroke:#666;stroke-width:.5208333333333334;stroke-dasharray:5,5" x1="1242.7083" x2="1242.7083" y1="90.8203" y2="3105.3385"/><line style="stroke:#666;stroke-width:.5208333333333334;stroke-dasharray:5,5" x1="1495.8333" x2="1495.8333" y1="90.8203" y2="3105.3385"/><line style="stroke:#666;stroke-width:.5208333333333334;stroke-dasharray:5,5" x1="1678.125" x2="1678.125" y1="90.8203" y2="3105.3385"/><line style="stroke:#666;stroke-width:.5208333333333334;stroke-dasharray:5,5" x1="2115.625" x2="2115.625" y1="90.8203" y2="3105.3385"/><line style="stroke:#666;stroke-width:.5208333333333334;stroke-dasharray:5,5" x1="2301.0417" x2="2301.0417" y1="90.8203" y2="3105.3385"/><line style="stroke:#666;stroke-width:.5208333333333334;stroke-dasharray:5,5" x1="2554.1667" x2="2554.1667" y1="90.8203" y2="3105.3385"/><line style="stroke:#666;stroke-width:.5208333333333334;stroke-dasharray:5,5" x1="2835.4167" x2="2835.4167" y1="90.8203" y2="3105.3385"/><line style="stroke:#666;stroke-width:.5208333333333334;stroke-dasharray:5,5" x1="3127.0833" x2="3127.0833" y1="90.8203" y2="3105.3385"/><rect fill="#3D3D3D" height="46.9727" rx="10.4167" ry="10.4167" style="stroke:#292929;stroke-width:.5208333333333334" width="50" x="330.2083" y="42.806"/><text fill="#F5F5F5" font-family="&quot;Graphik LCG&quot;" font-size="12.5" lengthAdjust="spacing" textLength="18.75" x="345.8333" y="71.4071">SFI</text><rect fill="#3D3D3D" height="46.9727" rx="10.4167" ry="10.4167" style="stroke:#292929;stroke-width:.5208333333333334" width="50" x="330.2083" y="3104.2969"/><text fill="#F5F5F5" font-family="&quot;Graphik LCG&quot;" font-size="12.5" lengthAdjust="spacing" textLength="18.75" x="345.8333" y="3132.8979">SFI</text><rect fill="#3D3D3D" height="46.9727" rx="10.4167" ry="10.4167" style="stroke:#292929;stroke-width:.5208333333333334" width="50" x="691.6667" y="42.806"/><text fill="#F5F5F5" font-family="&quot;Graphik LCG&quot;" font-size="12.5" lengthAdjust="spacing" textLength="18.75" x="707.2917" y="71.4071">BFI</text><rect fill="#3D3D3D" height="46.9727" rx="10.4167" ry="10.4167" style="stroke:#292929;stroke-width:.5208333333333334" width="50" x="691.6667" y="3104.2969"/><text fill="#F5F5F5" font-family="&quot;Graphik LCG&quot;" font-size="12.5" lengthAdjust="spacing" textLength="18.75" x="707.2917" y="3132.8979">BFI</text><rect fill="#3D3D3D" height="46.9727" rx="10.4167" ry="10.4167" style="stroke:#292929;stroke-width:.5208333333333334" width="211.4583" x="856.25" y="42.806"/><text fill="#F5F5F5" font-family="&quot;Graphik LCG&quot;" font-size="12.5" lengthAdjust="spacing" textLength="180.2083" x="871.875" y="71.4071">SFI_Payment_Initiation_Service</text><rect fill="#3D3D3D" height="46.9727" rx="10.4167" ry="10.4167" style="stroke:#292929;stroke-width:.5208333333333334" width="211.4583" x="856.25" y="3104.2969"/><text fill="#F5F5F5" font-family="&quot;Graphik LCG&quot;" font-size="12.5" lengthAdjust="spacing" textLength="180.2083" x="871.875" y="3132.8979">SFI_Payment_Initiation_Service</text><rect fill="#3D3D3D" height="46.9727" rx="10.4167" ry="10.4167" style="stroke:#292929;stroke-width:.5208333333333334" width="205.2083" x="1140.625" y="42.806"/><text fill="#F5F5F5" font-family="&quot;Graphik LCG&quot;" font-size="12.5" lengthAdjust="spacing" textLength="173.9583" x="1156.25" y="71.4071">SFI_Digital_Signature_Service</text><rect fill="#3D3D3D" height="46.9727" rx="10.4167" ry="10.4167" style="stroke:#292929;stroke-width:.5208333333333334" width="205.2083" x="1140.625" y="3104.2969"/><text fill="#F5F5F5" font-family="&quot;Graphik LCG&quot;" font-size="12.5" lengthAdjust="spacing" textLength="173.9583" x="1156.25" y="3132.8979">SFI_Digital_Signature_Service</text><rect fill="#3D3D3D" height="46.9727" rx="10.4167" ry="10.4167" style="stroke:#292929;stroke-width:.5208333333333334" width="155.2083" x="1418.75" y="42.806"/><text fill="#F5F5F5" font-family="&quot;Graphik LCG&quot;" font-size="12.5" lengthAdjust="spacing" textLength="123.9583" x="1434.375" y="71.4071">SFI_Gateway_Service</text><rect fill="#3D3D3D" height="46.9727" rx="10.4167" ry="10.4167" style="stroke:#292929;stroke-width:.5208333333333334" width="155.2083" x="1418.75" y="3104.2969"/><text fill="#F5F5F5" font-family="&quot;Graphik LCG&quot;" font-size="12.5" lengthAdjust="spacing" textLength="123.9583" x="1434.375" y="3132.8979">SFI_Gateway_Service</text><rect fill="#3D3D3D" height="46.9727" rx="10.4167" ry="10.4167" style="stroke:#292929;stroke-width:.5208333333333334" width="63.5417" x="1646.875" y="42.806"/><text fill="#F5F5F5" font-family="&quot;Graphik LCG&quot;" font-size="12.5" lengthAdjust="spacing" textLength="32.2917" x="1662.5" y="71.4071">Kafka</text><rect fill="#3D3D3D" height="46.9727" rx="10.4167" ry="10.4167" style="stroke:#292929;stroke-width:.5208333333333334" width="63.5417" x="1646.875" y="3104.2969"/><text fill="#F5F5F5" font-family="&quot;Graphik LCG&quot;" font-size="12.5" lengthAdjust="spacing" textLength="32.2917" x="1662.5" y="3132.8979">Kafka</text><rect fill="#3D3D3D" height="46.9727" rx="10.4167" ry="10.4167" style="stroke:#292929;stroke-width:.5208333333333334" width="69.7917" x="2081.25" y="42.806"/><text fill="#F5F5F5" font-family="&quot;Graphik LCG&quot;" font-size="12.5" lengthAdjust="spacing" textLength="38.5417" x="2096.875" y="71.4071">IsSettled</text><rect fill="#3D3D3D" height="46.9727" rx="10.4167" ry="10.4167" style="stroke:#292929;stroke-width:.5208333333333334" width="69.7917" x="2081.25" y="3104.2969"/><text fill="#F5F5F5" font-family="&quot;Graphik LCG&quot;" font-size="12.5" lengthAdjust="spacing" textLength="38.5417" x="2096.875" y="3132.8979">IsSettled</text><rect fill="#3D3D3D" height="46.9727" rx="10.4167" ry="10.4167" style="stroke:#292929;stroke-width:.5208333333333334" width="155.2083" x="2223.9583" y="42.806"/><text fill="#F5F5F5" font-family="&quot;Graphik LCG&quot;" font-size="12.5" lengthAdjust="spacing" textLength="123.9583" x="2239.5833" y="71.4071">BFI_Gateway_Service</text><rect fill="#3D3D3D" height="46.9727" rx="10.4167" ry="10.4167" style="stroke:#292929;stroke-width:.5208333333333334" width="155.2083" x="2223.9583" y="3104.2969"/><text fill="#F5F5F5" font-family="&quot;Graphik LCG&quot;" font-size="12.5" lengthAdjust="spacing" textLength="123.9583" x="2239.5833" y="3132.8979">BFI_Gateway_Service</text><rect fill="#3D3D3D" height="46.9727" rx="10.4167" ry="10.4167" style="stroke:#292929;stroke-width:.5208333333333334" width="205.2083" x="2452.0833" y="42.806"/><text fill="#F5F5F5" font-family="&quot;Graphik LCG&quot;" font-size="12.5" lengthAdjust="spacing" textLength="173.9583" x="2467.7083" y="71.4071">BFI_Digital_Signature_Service</text><rect fill="#3D3D3D" height="46.9727" rx="10.4167" ry="10.4167" style="stroke:#292929;stroke-width:.5208333333333334" width="205.2083" x="2452.0833" y="3104.2969"/><text fill="#F5F5F5" font-family="&quot;Graphik LCG&quot;" font-size="12.5" lengthAdjust="spacing" textLength="173.9583" x="2467.7083" y="3132.8979">BFI_Digital_Signature_Service</text><rect fill="#3D3D3D" height="46.9727" rx="10.4167" ry="10.4167" style="stroke:#292929;stroke-width:.5208333333333334" width="211.4583" x="2730.2083" y="42.806"/><text fill="#F5F5F5" font-family="&quot;Graphik LCG&quot;" font-size="12.5" lengthAdjust="spacing" textLength="180.2083" x="2745.8333" y="71.4071">BFI_Payment_Initiation_Service</text><rect fill="#3D3D3D" height="46.9727" rx="10.4167" ry="10.4167" style="stroke:#292929;stroke-width:.5208333333333334" width="211.4583" x="2730.2083" y="3104.2969"/><text fill="#F5F5F5" font-family="&quot;Graphik LCG&quot;" font-size="12.5" lengthAdjust="spacing" textLength="180.2083" x="2745.8333" y="3132.8979">BFI_Payment_Initiation_Service</text><rect fill="#3D3D3D" height="46.9727" rx="10.4167" ry="10.4167" style="stroke:#292929;stroke-width:.5208333333333334" width="141.6667" x="3056.25" y="42.806"/><text fill="#F5F5F5" font-family="&quot;Graphik LCG&quot;" font-size="12.5" lengthAdjust="spacing" textLength="110.4167" x="3071.875" y="71.4071">Distributed_Ledger</text><rect fill="#3D3D3D" height="46.9727" rx="10.4167" ry="10.4167" style="stroke:#292929;stroke-width:.5208333333333334" width="141.6667" x="3056.25" y="3104.2969"/><text fill="#F5F5F5" font-family="&quot;Graphik LCG&quot;" font-size="12.5" lengthAdjust="spacing" textLength="110.4167" x="3071.875" y="3132.8979">Distributed_Ledger</text><path d="M228.125,116.862 L228.125,138.737 A10.4167,10.4167 0 0 0 238.5417,149.1536 L471.875,149.1536 A10.4167,10.4167 0 0 0 482.2917,138.737 L482.2917,116.862 L471.875,106.4453 L238.5417,106.4453 A10.4167,10.4167 0 0 0 228.125,116.862 " fill="url(#g1l0gew5sougag0)" style="stroke:#181818;stroke-width:.5208333333333334"/><path d="M471.875,106.4453 L471.875,111.6536 A5.2083,5.2083 0 0 0 477.0833,116.862 L482.2917,116.862 L471.875,106.4453 " fill="url(#g1l0gew5sougag0)" style="stroke:#181818;stroke-width:.5208333333333334"/><text fill="#85C6FF" font-family="&quot;Graphik LCG&quot;" font-size="12.5" lengthAdjust="spacing" textLength="215.625" x="242.7083" y="132.9631">Creates a issd.002 financial message</text><line style="stroke:#666;stroke-width:1.0416666666666667" x1="311.4583" x2="355.2083" y1="193.099" y2="193.099"/><line style="stroke:#666;stroke-width:1.0416666666666667" x1="311.4583" x2="311.4583" y1="193.099" y2="206.6406"/><line style="stroke:#666;stroke-width:1.0416666666666667" x1="311.4583" x2="354.1667" y1="206.6406" y2="206.6406"/><polygon fill="#666666" points="345.8333,202.474,356.25,206.6406,345.8333,210.8073,350,206.6406" style="stroke:#666;stroke-width:1.0416666666666667"/><text fill="#F5F5F5" font-family="&quot;Graphik LCG&quot;" font-size="12.5" lengthAdjust="spacing" textLength="323.9583" x="22.9167" y="179.9357">Creating a issd.002 financial message on the server side</text><path d="M220.8333,230.599 L220.8333,252.474 A10.4167,10.4167 0 0 0 231.25,262.8906 L479.1667,262.8906 A10.4167,10.4167 0 0 0 489.5833,252.474 L489.5833,230.599 L479.1667,220.1823 L231.25,220.1823 A10.4167,10.4167 0 0 0 220.8333,230.599 " fill="url(#g1l0gew5sougag0)" style="stroke:#181818;stroke-width:.5208333333333334"/><path d="M479.1667,220.1823 L479.1667,225.3906 A5.2083,5.2083 0 0 0 484.375,230.599 L489.5833,230.599 L479.1667,220.1823 " fill="url(#g1l0gew5sougag0)" style="stroke:#181818;stroke-width:.5208333333333334"/><text fill="#85C6FF" font-family="&quot;Graphik LCG&quot;" font-size="12.5" lengthAdjust="spacing" textLength="230.2083" x="235.4167" y="246.7">Generates the “unsignedPayload” object</text><line style="stroke:#666;stroke-width:1.0416666666666667" x1="311.4583" x2="355.2083" y1="306.8359" y2="306.8359"/><line style="stroke:#666;stroke-width:1.0416666666666667" x1="311.4583" x2="311.4583" y1="306.8359" y2="320.3776"/><line style="stroke:#666;stroke-width:1.0416666666666667" x1="311.4583" x2="354.1667" y1="320.3776" y2="320.3776"/><polygon fill="#666666" points="345.8333,316.2109,356.25,320.3776,345.8333,324.5443,350,320.3776" style="stroke:#666;stroke-width:1.0416666666666667"/><text fill="#F5F5F5" font-family="&quot;Graphik LCG&quot;" font-size="12.5" lengthAdjust="spacing" textLength="215.625" x="131.25" y="293.6727">Payload generation on the server side</text><path d="M141.6667,344.3359 L141.6667,366.2109 A10.4167,10.4167 0 0 0 152.0833,376.6276 L557.2917,376.6276 A10.4167,10.4167 0 0 0 567.7083,366.2109 L567.7083,344.3359 L557.2917,333.9193 L152.0833,333.9193 A10.4167,10.4167 0 0 0 141.6667,344.3359 " fill="url(#g1l0gew5sougag0)" style="stroke:#181818;stroke-width:.5208333333333334"/><path d="M557.2917,333.9193 L557.2917,339.1276 A5.2083,5.2083 0 0 0 562.5,344.3359 L567.7083,344.3359 L557.2917,333.9193 " fill="url(#g1l0gew5sougag0)" style="stroke:#181818;stroke-width:.5208333333333334"/><text fill="#85C6FF" font-family="&quot;Graphik LCG&quot;" font-size="12.5" lengthAdjust="spacing" textLength="387.5" x="156.25" y="360.437">Sends a issd.002 financial message in base64 encoding for signing</text><polygon fill="#666666" points="1230.7292,447.8516,1241.1458,452.0182,1230.7292,456.1849,1234.8958,452.0182" style="stroke:#666;stroke-width:1.0416666666666667"/><line style="stroke:#666;stroke-width:1.0416666666666667" x1="355.2083" x2="1236.9792" y1="452.0182" y2="452.0182"/><text fill="#F5F5F5" font-family="&quot;Graphik LCG&quot;" font-size="12.5" lengthAdjust="spacing" textLength="122.9167" x="736.1979" y="407.4097">POST /sign/message</text><text fill="#F5F5F5" font-family="&quot;Graphik LCG&quot;" font-size="12.5" lengthAdjust="spacing" textLength="3.125" x="797.6563" y="423.1323"> </text><text fill="#F5F5F5" font-family="&quot;Graphik LCG&quot;" font-size="12.5" lengthAdjust="spacing" textLength="257.2917" x="670.5729" y="438.855">Payload: unsignedPayload {base64 issd.002}</text><path d="M215.625,475.9766 L215.625,497.8516 A10.4167,10.4167 0 0 0 226.0417,508.2682 L483.3333,508.2682 A10.4167,10.4167 0 0 0 493.75,497.8516 L493.75,475.9766 L483.3333,465.5599 L226.0417,465.5599 A10.4167,10.4167 0 0 0 215.625,475.9766 " fill="url(#g1l0gew5sougag0)" style="stroke:#181818;stroke-width:.5208333333333334"/><path d="M483.3333,465.5599 L483.3333,470.7682 A5.2083,5.2083 0 0 0 488.5417,475.9766 L493.75,475.9766 L483.3333,465.5599 " fill="url(#g1l0gew5sougag0)" style="stroke:#181818;stroke-width:.5208333333333334"/><text fill="#85C6FF" font-family="&quot;Graphik LCG&quot;" font-size="12.5" lengthAdjust="spacing" textLength="239.5833" x="230.2083" y="492.0776">Gets a signed issd.002 financial message</text><polygon fill="#666666" points="366.6667,579.4922,356.25,583.6589,366.6667,587.8255,362.5,583.6589" style="stroke:#666;stroke-width:1.0416666666666667"/><line style="stroke:#666;stroke-width:1.0416666666666667" x1="360.4167" x2="1242.1875" y1="583.6589" y2="583.6589"/><text fill="#F5F5F5" font-family="&quot;Graphik LCG&quot;" font-size="12.5" lengthAdjust="spacing" textLength="60.4167" x="767.4479" y="539.0503">Response</text><text fill="#F5F5F5" font-family="&quot;Graphik LCG&quot;" font-size="12.5" lengthAdjust="spacing" textLength="3.125" x="797.6563" y="554.7729"> </text><text fill="#F5F5F5" font-family="&quot;Graphik LCG&quot;" font-size="12.5" lengthAdjust="spacing" textLength="295.8333" x="651.3021" y="570.4956">Payload: signedMessagePayload {base64 issd.002}</text><path d="M182.2917,607.6172 L182.2917,629.4922 A10.4167,10.4167 0 0 0 192.7083,639.9089 L517.7083,639.9089 A10.4167,10.4167 0 0 0 528.125,629.4922 L528.125,607.6172 L517.7083,597.2005 L192.7083,597.2005 A10.4167,10.4167 0 0 0 182.2917,607.6172 " fill="url(#g1l0gew5sougag0)" style="stroke:#181818;stroke-width:.5208333333333334"/><path d="M517.7083,597.2005 L517.7083,602.4089 A5.2083,5.2083 0 0 0 522.9167,607.6172 L528.125,607.6172 L517.7083,597.2005 " fill="url(#g1l0gew5sougag0)" style="stroke:#181818;stroke-width:.5208333333333334"/><text fill="#85C6FF" font-family="&quot;Graphik LCG&quot;" font-size="12.5" lengthAdjust="spacing" textLength="307.2917" x="196.875" y="623.7183">Generates a DSO Return Request “financialMessage”</text><line style="stroke:#666;stroke-width:1.0416666666666667" x1="311.4583" x2="355.2083" y1="683.8542" y2="683.8542"/><line style="stroke:#666;stroke-width:1.0416666666666667" x1="311.4583" x2="311.4583" y1="683.8542" y2="697.3958"/><line style="stroke:#666;stroke-width:1.0416666666666667" x1="311.4583" x2="354.1667" y1="697.3958" y2="697.3958"/><polygon fill="#666666" points="345.8333,693.2292,356.25,697.3958,345.8333,701.5625,350,697.3958" style="stroke:#666;stroke-width:1.0416666666666667"/><text fill="#F5F5F5" font-family="&quot;Graphik LCG&quot;" font-size="12.5" lengthAdjust="spacing" textLength="215.625" x="131.25" y="670.6909">Payload generation on the server side</text><path d="M250,721.3542 L250,743.2292 A10.4167,10.4167 0 0 0 260.4167,753.6458 L450,753.6458 A10.4167,10.4167 0 0 0 460.4167,743.2292 L460.4167,721.3542 L450,710.9375 L260.4167,710.9375 A10.4167,10.4167 0 0 0 250,721.3542 " fill="url(#g1l0gew5sougag0)" style="stroke:#181818;stroke-width:.5208333333333334"/><path d="M450,710.9375 L450,716.1458 A5.2083,5.2083 0 0 0 455.2083,721.3542 L460.4167,721.3542 L450,710.9375 " fill="url(#g1l0gew5sougag0)" style="stroke:#181818;stroke-width:.5208333333333334"/><text fill="#85C6FF" font-family="&quot;Graphik LCG&quot;" font-size="12.5" lengthAdjust="spacing" textLength="171.875" x="264.5833" y="737.4552">Sends a DSO Return Request</text><polygon fill="#666666" points="949.4792,824.8698,959.8958,829.0365,949.4792,833.2031,953.6458,829.0365" style="stroke:#666;stroke-width:1.0416666666666667"/><line style="stroke:#666;stroke-width:1.0416666666666667" x1="355.2083" x2="955.7292" y1="829.0365" y2="829.0365"/><text fill="#F5F5F5" font-family="&quot;Graphik LCG&quot;" font-size="12.5" lengthAdjust="spacing" textLength="186.4583" x="563.8021" y="784.4279">POST /payments/message/send</text><text fill="#F5F5F5" font-family="&quot;Graphik LCG&quot;" font-size="12.5" lengthAdjust="spacing" textLength="3.125" x="657.0313" y="800.1506"> </text><text fill="#F5F5F5" font-family="&quot;Graphik LCG&quot;" font-size="12.5" lengthAdjust="spacing" textLength="397.9167" x="459.6354" y="815.8732">Payload: financialMessage {signedMessagePayload + message type}</text><polygon fill="#666666" points="1666.1458,871.8424,1676.5625,876.0091,1666.1458,880.1758,1670.3125,876.0091" style="stroke:#666;stroke-width:1.0416666666666667"/><line style="stroke:#666;stroke-width:1.0416666666666667" x1="961.9792" x2="1672.3958" y1="876.0091" y2="876.0091"/><text fill="#F5F5F5" font-family="&quot;Graphik LCG&quot;" font-size="12.5" lengthAdjust="spacing" textLength="144.7917" x="1247.9167" y="862.8459">Add message to the topic</text><path d="M239.5833,899.9674 L239.5833,921.8424 A10.4167,10.4167 0 0 0 250,932.2591 L460.4167,932.2591 A10.4167,10.4167 0 0 0 470.8333,921.8424 L470.8333,899.9674 L460.4167,889.5508 L250,889.5508 A10.4167,10.4167 0 0 0 239.5833,899.9674 " fill="url(#g1l0gew5sougag0)" style="stroke:#181818;stroke-width:.5208333333333334"/><path d="M460.4167,889.5508 L460.4167,894.7591 A5.2083,5.2083 0 0 0 465.625,899.9674 L470.8333,899.9674 L460.4167,889.5508 " fill="url(#g1l0gew5sougag0)" style="stroke:#181818;stroke-width:.5208333333333334"/><text fill="#85C6FF" font-family="&quot;Graphik LCG&quot;" font-size="12.5" lengthAdjust="spacing" textLength="192.7083" x="254.1667" y="916.0685">Gets pacs.002 financial message</text><polygon fill="#666666" points="366.6667,1003.4831,356.25,1007.6497,366.6667,1011.8164,362.5,1007.6497" style="stroke:#666;stroke-width:1.0416666666666667"/><line style="stroke:#666;stroke-width:1.0416666666666667" x1="360.4167" x2="960.9375" y1="1007.6497" y2="1007.6497"/><text fill="#F5F5F5" font-family="&quot;Graphik LCG&quot;" font-size="12.5" lengthAdjust="spacing" textLength="60.4167" x="626.8229" y="963.0412">Response</text><text fill="#F5F5F5" font-family="&quot;Graphik LCG&quot;" font-size="12.5" lengthAdjust="spacing" textLength="3.125" x="657.0313" y="978.7638"> </text><text fill="#F5F5F5" font-family="&quot;Graphik LCG&quot;" font-size="12.5" lengthAdjust="spacing" textLength="264.5833" x="526.3021" y="994.4865">Payload: financialMessage {base64 pacs.002}</text><polygon fill="#666666" points="1690.1042,1050.4557,1679.6875,1054.6224,1690.1042,1058.7891,1685.9375,1054.6224" style="stroke:#666;stroke-width:1.0416666666666667"/><polygon fill="#666666" points="2289.0625,1050.4557,2299.4792,1054.6224,2289.0625,1058.7891,2293.2292,1054.6224" style="stroke:#666;stroke-width:1.0416666666666667"/><line style="stroke:#666;stroke-width:1.0416666666666667" x1="1683.8542" x2="2295.3125" y1="1054.6224" y2="1054.6224"/><text fill="#F5F5F5" font-family="&quot;Graphik LCG&quot;" font-size="12.5" lengthAdjust="spacing" textLength="130.2083" x="1925" y="1041.4591">Subscribed to the topic</text><path d="M557.2917,1078.5807 L557.2917,1100.4557 A10.4167,10.4167 0 0 0 567.7083,1110.8724 L865.625,1110.8724 A10.4167,10.4167 0 0 0 876.0417,1100.4557 L876.0417,1078.5807 L865.625,1068.1641 L567.7083,1068.1641 A10.4167,10.4167 0 0 0 557.2917,1078.5807 " fill="url(#g1l0gew5sougag0)" style="stroke:#181818;stroke-width:.5208333333333334"/><path d="M865.625,1068.1641 L865.625,1073.3724 A5.2083,5.2083 0 0 0 870.8333,1078.5807 L876.0417,1078.5807 L865.625,1068.1641 " fill="url(#g1l0gew5sougag0)" style="stroke:#181818;stroke-width:.5208333333333334"/><text fill="#85C6FF" font-family="&quot;Graphik LCG&quot;" font-size="12.5" lengthAdjust="spacing" textLength="280.2083" x="571.875" y="1094.6818">Sends a query to extract the DSO Return Request</text><polygon fill="#666666" points="2289.0625,1182.0964,2299.4792,1186.263,2289.0625,1190.4297,2293.2292,1186.263" style="stroke:#666;stroke-width:1.0416666666666667"/><line style="stroke:#666;stroke-width:1.0416666666666667" x1="716.6667" x2="2295.3125" y1="1186.263" y2="1186.263"/><text fill="#F5F5F5" font-family="&quot;Graphik LCG&quot;" font-size="12.5" lengthAdjust="spacing" textLength="143.75" x="1435.6771" y="1141.6545">GET /gateway/messages</text><text fill="#F5F5F5" font-family="&quot;Graphik LCG&quot;" font-size="12.5" lengthAdjust="spacing" textLength="3.125" x="1507.5521" y="1157.3771"> </text><text fill="#F5F5F5" font-family="&quot;Graphik LCG&quot;" font-size="12.5" lengthAdjust="spacing" textLength="301.0417" x="1358.5938" y="1173.0998">with the “payment” argument in the query parameters</text><path d="M611.4583,1210.2214 L611.4583,1232.0964 A10.4167,10.4167 0 0 0 621.875,1242.513 L811.4583,1242.513 A10.4167,10.4167 0 0 0 821.875,1232.0964 L821.875,1210.2214 L811.4583,1199.8047 L621.875,1199.8047 A10.4167,10.4167 0 0 0 611.4583,1210.2214 " fill="url(#g1l0gew5sougag0)" style="stroke:#181818;stroke-width:.5208333333333334"/><path d="M811.4583,1199.8047 L811.4583,1205.013 A5.2083,5.2083 0 0 0 816.6667,1210.2214 L821.875,1210.2214 L811.4583,1199.8047 " fill="url(#g1l0gew5sougag0)" style="stroke:#181818;stroke-width:.5208333333333334"/><text fill="#85C6FF" font-family="&quot;Graphik LCG&quot;" font-size="12.5" lengthAdjust="spacing" textLength="171.875" x="626.0417" y="1226.3224">Gets the DSO Return Request</text><polygon fill="#666666" points="728.125,1313.737,717.7083,1317.9036,728.125,1322.0703,723.9583,1317.9036" style="stroke:#666;stroke-width:1.0416666666666667"/><line style="stroke:#666;stroke-width:1.0416666666666667" x1="721.875" x2="2300.5208" y1="1317.9036" y2="1317.9036"/><text fill="#F5F5F5" font-family="&quot;Graphik LCG&quot;" font-size="12.5" lengthAdjust="spacing" textLength="60.4167" x="1477.3438" y="1273.2951">Response</text><text fill="#F5F5F5" font-family="&quot;Graphik LCG&quot;" font-size="12.5" lengthAdjust="spacing" textLength="3.125" x="1507.5521" y="1289.0177"> </text><text fill="#F5F5F5" font-family="&quot;Graphik LCG&quot;" font-size="12.5" lengthAdjust="spacing" textLength="258.3333" x="1379.9479" y="1304.7404">Payload: financialMessage {base64 issd.002}</text><path d="M586.4583,1341.862 L586.4583,1363.737 A10.4167,10.4167 0 0 0 596.875,1374.1536 L836.4583,1374.1536 A10.4167,10.4167 0 0 0 846.875,1363.737 L846.875,1341.862 L836.4583,1331.4453 L596.875,1331.4453 A10.4167,10.4167 0 0 0 586.4583,1341.862 " fill="url(#g1l0gew5sougag0)" style="stroke:#181818;stroke-width:.5208333333333334"/><path d="M836.4583,1331.4453 L836.4583,1336.6536 A5.2083,5.2083 0 0 0 841.6667,1341.862 L846.875,1341.862 L836.4583,1331.4453 " fill="url(#g1l0gew5sougag0)" style="stroke:#181818;stroke-width:.5208333333333334"/><text fill="#85C6FF" font-family="&quot;Graphik LCG&quot;" font-size="12.5" lengthAdjust="spacing" textLength="221.875" x="601.0417" y="1357.9631">Creates a pacs.004 financial message</text><line style="stroke:#666;stroke-width:1.0416666666666667" x1="672.9167" x2="716.6667" y1="1418.099" y2="1418.099"/><line style="stroke:#666;stroke-width:1.0416666666666667" x1="672.9167" x2="672.9167" y1="1418.099" y2="1431.6406"/><line style="stroke:#666;stroke-width:1.0416666666666667" x1="672.9167" x2="715.625" y1="1431.6406" y2="1431.6406"/><polygon fill="#666666" points="707.2917,1427.474,717.7083,1431.6406,707.2917,1435.8073,711.4583,1431.6406" style="stroke:#666;stroke-width:1.0416666666666667"/><text fill="#F5F5F5" font-family="&quot;Graphik LCG&quot;" font-size="12.5" lengthAdjust="spacing" textLength="330.2083" x="378.125" y="1404.9357">Creating a pacs.004 financial message on the server side</text><path d="M582.2917,1455.599 L582.2917,1477.474 A10.4167,10.4167 0 0 0 592.7083,1487.8906 L840.625,1487.8906 A10.4167,10.4167 0 0 0 851.0417,1477.474 L851.0417,1455.599 L840.625,1445.1823 L592.7083,1445.1823 A10.4167,10.4167 0 0 0 582.2917,1455.599 " fill="url(#g1l0gew5sougag0)" style="stroke:#181818;stroke-width:.5208333333333334"/><path d="M840.625,1445.1823 L840.625,1450.3906 A5.2083,5.2083 0 0 0 845.8333,1455.599 L851.0417,1455.599 L840.625,1445.1823 " fill="url(#g1l0gew5sougag0)" style="stroke:#181818;stroke-width:.5208333333333334"/><text fill="#85C6FF" font-family="&quot;Graphik LCG&quot;" font-size="12.5" lengthAdjust="spacing" textLength="230.2083" x="596.875" y="1471.7">Generates the “unsignedPayload” object</text><line style="stroke:#666;stroke-width:1.0416666666666667" x1="672.9167" x2="716.6667" y1="1531.8359" y2="1531.8359"/><line style="stroke:#666;stroke-width:1.0416666666666667" x1="672.9167" x2="672.9167" y1="1531.8359" y2="1545.3776"/><line style="stroke:#666;stroke-width:1.0416666666666667" x1="672.9167" x2="715.625" y1="1545.3776" y2="1545.3776"/><polygon fill="#666666" points="707.2917,1541.2109,717.7083,1545.3776,707.2917,1549.5443,711.4583,1545.3776" style="stroke:#666;stroke-width:1.0416666666666667"/><text fill="#F5F5F5" font-family="&quot;Graphik LCG&quot;" font-size="12.5" lengthAdjust="spacing" textLength="215.625" x="492.7083" y="1518.6727">Payload generation on the server side</text><path d="M500,1569.3359 L500,1591.2109 A10.4167,10.4167 0 0 0 510.4167,1601.6276 L921.875,1601.6276 A10.4167,10.4167 0 0 0 932.2917,1591.2109 L932.2917,1569.3359 L921.875,1558.9193 L510.4167,1558.9193 A10.4167,10.4167 0 0 0 500,1569.3359 " fill="url(#g1l0gew5sougag0)" style="stroke:#181818;stroke-width:.5208333333333334"/><path d="M921.875,1558.9193 L921.875,1564.1276 A5.2083,5.2083 0 0 0 927.0833,1569.3359 L932.2917,1569.3359 L921.875,1558.9193 " fill="url(#g1l0gew5sougag0)" style="stroke:#181818;stroke-width:.5208333333333334"/><text fill="#85C6FF" font-family="&quot;Graphik LCG&quot;" font-size="12.5" lengthAdjust="spacing" textLength="393.75" x="514.5833" y="1585.437">Sends a pacs.004 financial message in base64 encoding for signing</text><polygon fill="#666666" points="2542.1875,1672.8516,2552.6042,1677.0182,2542.1875,1681.1849,2546.3542,1677.0182" style="stroke:#666;stroke-width:1.0416666666666667"/><line style="stroke:#666;stroke-width:1.0416666666666667" x1="716.6667" x2="2548.4375" y1="1677.0182" y2="1677.0182"/><text fill="#F5F5F5" font-family="&quot;Graphik LCG&quot;" font-size="12.5" lengthAdjust="spacing" textLength="122.9167" x="1572.6563" y="1632.4097">POST /sign/message</text><text fill="#F5F5F5" font-family="&quot;Graphik LCG&quot;" font-size="12.5" lengthAdjust="spacing" textLength="3.125" x="1634.1146" y="1648.1323"> </text><text fill="#F5F5F5" font-family="&quot;Graphik LCG&quot;" font-size="12.5" lengthAdjust="spacing" textLength="263.5417" x="1503.9063" y="1663.855">Payload: unsignedPayload {base64 pacs.004}</text><path d="M573.9583,1700.9766 L573.9583,1722.8516 A10.4167,10.4167 0 0 0 584.375,1733.2682 L847.9167,1733.2682 A10.4167,10.4167 0 0 0 858.3333,1722.8516 L858.3333,1700.9766 L847.9167,1690.5599 L584.375,1690.5599 A10.4167,10.4167 0 0 0 573.9583,1700.9766 " fill="url(#g1l0gew5sougag0)" style="stroke:#181818;stroke-width:.5208333333333334"/><path d="M847.9167,1690.5599 L847.9167,1695.7682 A5.2083,5.2083 0 0 0 853.125,1700.9766 L858.3333,1700.9766 L847.9167,1690.5599 " fill="url(#g1l0gew5sougag0)" style="stroke:#181818;stroke-width:.5208333333333334"/><text fill="#85C6FF" font-family="&quot;Graphik LCG&quot;" font-size="12.5" lengthAdjust="spacing" textLength="245.8333" x="588.5417" y="1717.0776">Gets a signed pacs.004 financial message</text><polygon fill="#666666" points="728.125,1804.4922,717.7083,1808.6589,728.125,1812.8255,723.9583,1808.6589" style="stroke:#666;stroke-width:1.0416666666666667"/><line style="stroke:#666;stroke-width:1.0416666666666667" x1="721.875" x2="2553.6458" y1="1808.6589" y2="1808.6589"/><text fill="#F5F5F5" font-family="&quot;Graphik LCG&quot;" font-size="12.5" lengthAdjust="spacing" textLength="60.4167" x="1603.9063" y="1764.0503">Response</text><text fill="#F5F5F5" font-family="&quot;Graphik LCG&quot;" font-size="12.5" lengthAdjust="spacing" textLength="3.125" x="1634.1146" y="1779.7729"> </text><text fill="#F5F5F5" font-family="&quot;Graphik LCG&quot;" font-size="12.5" lengthAdjust="spacing" textLength="302.0833" x="1484.6354" y="1795.4956">Payload: signedMessagePayload {base64 pacs.004}</text><path d="M581.25,1832.6172 L581.25,1854.4922 A10.4167,10.4167 0 0 0 591.6667,1864.9089 L840.625,1864.9089 A10.4167,10.4167 0 0 0 851.0417,1854.4922 L851.0417,1832.6172 L840.625,1822.2005 L591.6667,1822.2005 A10.4167,10.4167 0 0 0 581.25,1832.6172 " fill="url(#g1l0gew5sougag0)" style="stroke:#181818;stroke-width:.5208333333333334"/><path d="M840.625,1822.2005 L840.625,1827.4089 A5.2083,5.2083 0 0 0 845.8333,1832.6172 L851.0417,1832.6172 L840.625,1822.2005 " fill="url(#g1l0gew5sougag0)" style="stroke:#181818;stroke-width:.5208333333333334"/><text fill="#85C6FF" font-family="&quot;Graphik LCG&quot;" font-size="12.5" lengthAdjust="spacing" textLength="231.25" x="595.8333" y="1848.7183">Generates the “financialMessage” object</text><line style="stroke:#666;stroke-width:1.0416666666666667" x1="672.9167" x2="716.6667" y1="1908.8542" y2="1908.8542"/><line style="stroke:#666;stroke-width:1.0416666666666667" x1="672.9167" x2="672.9167" y1="1908.8542" y2="1922.3958"/><line style="stroke:#666;stroke-width:1.0416666666666667" x1="672.9167" x2="715.625" y1="1922.3958" y2="1922.3958"/><polygon fill="#666666" points="707.2917,1918.2292,717.7083,1922.3958,707.2917,1926.5625,711.4583,1922.3958" style="stroke:#666;stroke-width:1.0416666666666667"/><text fill="#F5F5F5" font-family="&quot;Graphik LCG&quot;" font-size="12.5" lengthAdjust="spacing" textLength="215.625" x="492.7083" y="1895.6909">Payload generation on the server side</text><path d="M588.5417,1946.3542 L588.5417,1968.2292 A10.4167,10.4167 0 0 0 598.9583,1978.6458 L833.3333,1978.6458 A10.4167,10.4167 0 0 0 843.75,1968.2292 L843.75,1946.3542 L833.3333,1935.9375 L598.9583,1935.9375 A10.4167,10.4167 0 0 0 588.5417,1946.3542 " fill="url(#g1l0gew5sougag0)" style="stroke:#181818;stroke-width:.5208333333333334"/><path d="M833.3333,1935.9375 L833.3333,1941.1458 A5.2083,5.2083 0 0 0 838.5417,1946.3542 L843.75,1946.3542 L833.3333,1935.9375 " fill="url(#g1l0gew5sougag0)" style="stroke:#181818;stroke-width:.5208333333333334"/><text fill="#85C6FF" font-family="&quot;Graphik LCG&quot;" font-size="12.5" lengthAdjust="spacing" textLength="216.6667" x="603.125" y="1962.4552">Sends a Payment Request Response</text><polygon fill="#666666" points="2823.4375,2049.8698,2833.8542,2054.0365,2823.4375,2058.2031,2827.6042,2054.0365" style="stroke:#666;stroke-width:1.0416666666666667"/><line style="stroke:#666;stroke-width:1.0416666666666667" x1="716.6667" x2="2829.6875" y1="2054.0365" y2="2054.0365"/><text fill="#F5F5F5" font-family="&quot;Graphik LCG&quot;" font-size="12.5" lengthAdjust="spacing" textLength="184.375" x="1682.5521" y="2009.4279">POST /payments/message/reply</text><text fill="#F5F5F5" font-family="&quot;Graphik LCG&quot;" font-size="12.5" lengthAdjust="spacing" textLength="3.125" x="1774.7396" y="2025.1506"> </text><text fill="#F5F5F5" font-family="&quot;Graphik LCG&quot;" font-size="12.5" lengthAdjust="spacing" textLength="397.9167" x="1577.3438" y="2040.8732">Payload: financialMessage {signedMessagePayload + message type}</text><polygon fill="#666666" points="1690.1042,2096.8424,1679.6875,2101.0091,1690.1042,2105.1758,1685.9375,2101.0091" style="stroke:#666;stroke-width:1.0416666666666667"/><line style="stroke:#666;stroke-width:1.0416666666666667" x1="1683.8542" x2="2834.8958" y1="2101.0091" y2="2101.0091"/><text fill="#F5F5F5" font-family="&quot;Graphik LCG&quot;" font-size="12.5" lengthAdjust="spacing" textLength="144.7917" x="2184.8958" y="2087.8459">Add message to the topic</text><path d="M601.0417,2124.9674 L601.0417,2146.8424 A10.4167,10.4167 0 0 0 611.4583,2157.2591 L821.875,2157.2591 A10.4167,10.4167 0 0 0 832.2917,2146.8424 L832.2917,2124.9674 L821.875,2114.5508 L611.4583,2114.5508 A10.4167,10.4167 0 0 0 601.0417,2124.9674 " fill="url(#g1l0gew5sougag0)" style="stroke:#181818;stroke-width:.5208333333333334"/><path d="M821.875,2114.5508 L821.875,2119.7591 A5.2083,5.2083 0 0 0 827.0833,2124.9674 L832.2917,2124.9674 L821.875,2114.5508 " fill="url(#g1l0gew5sougag0)" style="stroke:#181818;stroke-width:.5208333333333334"/><text fill="#85C6FF" font-family="&quot;Graphik LCG&quot;" font-size="12.5" lengthAdjust="spacing" textLength="192.7083" x="615.625" y="2141.0685">Gets pacs.002 financial message</text><polygon fill="#666666" points="728.125,2228.4831,717.7083,2232.6497,728.125,2236.8164,723.9583,2232.6497" style="stroke:#666;stroke-width:1.0416666666666667"/><line style="stroke:#666;stroke-width:1.0416666666666667" x1="721.875" x2="2834.8958" y1="2232.6497" y2="2232.6497"/><text fill="#F5F5F5" font-family="&quot;Graphik LCG&quot;" font-size="12.5" lengthAdjust="spacing" textLength="60.4167" x="1744.5313" y="2188.0412">Response</text><text fill="#F5F5F5" font-family="&quot;Graphik LCG&quot;" font-size="12.5" lengthAdjust="spacing" textLength="3.125" x="1774.7396" y="2203.7638"> </text><text fill="#F5F5F5" font-family="&quot;Graphik LCG&quot;" font-size="12.5" lengthAdjust="spacing" textLength="264.5833" x="1644.0104" y="2219.4865">Payload: financialMessage {base64 pacs.002}</text><path d="M1961.4583,2256.6081 L1961.4583,2278.4831 A10.4167,10.4167 0 0 0 1971.875,2288.8997 L2259.375,2288.8997 A10.4167,10.4167 0 0 0 2269.7917,2278.4831 L2269.7917,2256.6081 L2259.375,2246.1914 L1971.875,2246.1914 A10.4167,10.4167 0 0 0 1961.4583,2256.6081 " fill="url(#g1l0gew5sougag0)" style="stroke:#181818;stroke-width:.5208333333333334"/><path d="M2259.375,2246.1914 L2259.375,2251.3997 A5.2083,5.2083 0 0 0 2264.5833,2256.6081 L2269.7917,2256.6081 L2259.375,2246.1914 " fill="url(#g1l0gew5sougag0)" style="stroke:#181818;stroke-width:.5208333333333334"/><text fill="#85C6FF" font-family="&quot;Graphik LCG&quot;" font-size="12.5" lengthAdjust="spacing" textLength="269.7917" x="1976.0417" y="2272.7091">Creates and sends a transaction to the network</text><line style="stroke:#666;stroke-width:1.0416666666666667" x1="2072.3958" x2="2116.1458" y1="2332.8451" y2="2332.8451"/><line style="stroke:#666;stroke-width:1.0416666666666667" x1="2072.3958" x2="2072.3958" y1="2332.8451" y2="2346.3867"/><line style="stroke:#666;stroke-width:1.0416666666666667" x1="2072.3958" x2="2115.1042" y1="2346.3867" y2="2346.3867"/><polygon fill="#666666" points="2106.7708,2342.2201,2117.1875,2346.3867,2106.7708,2350.5534,2110.9375,2346.3867" style="stroke:#666;stroke-width:1.0416666666666667"/><text fill="#F5F5F5" font-family="&quot;Graphik LCG&quot;" font-size="12.5" lengthAdjust="spacing" textLength="227.0833" x="1880.7292" y="2319.6818">Extracts IsSettled central account address</text><line style="stroke:#666;stroke-width:1.0416666666666667" x1="2072.3958" x2="2116.1458" y1="2393.3594" y2="2393.3594"/><line style="stroke:#666;stroke-width:1.0416666666666667" x1="2072.3958" x2="2072.3958" y1="2393.3594" y2="2406.901"/><line style="stroke:#666;stroke-width:1.0416666666666667" x1="2072.3958" x2="2115.1042" y1="2406.901" y2="2406.901"/><polygon fill="#666666" points="2106.7708,2402.7344,2117.1875,2406.901,2106.7708,2411.0677,2110.9375,2406.901" style="stroke:#666;stroke-width:1.0416666666666667"/><text fill="#F5F5F5" font-family="&quot;Graphik LCG&quot;" font-size="12.5" lengthAdjust="spacing" textLength="406.25" x="1701.5625" y="2380.1961">Extracts the emission account address of the Member’s BFI and the SFI</text><line style="stroke:#666;stroke-width:1.0416666666666667" x1="2072.3958" x2="2116.1458" y1="2453.8737" y2="2453.8737"/><line style="stroke:#666;stroke-width:1.0416666666666667" x1="2072.3958" x2="2072.3958" y1="2453.8737" y2="2467.4154"/><line style="stroke:#666;stroke-width:1.0416666666666667" x1="2072.3958" x2="2115.1042" y1="2467.4154" y2="2467.4154"/><polygon fill="#666666" points="2106.7708,2463.2487,2117.1875,2467.4154,2106.7708,2471.582,2110.9375,2467.4154" style="stroke:#666;stroke-width:1.0416666666666667"/><text fill="#F5F5F5" font-family="&quot;Graphik LCG&quot;" font-size="12.5" lengthAdjust="spacing" textLength="265.625" x="1842.1875" y="2440.7104">Generates a transaction to send to the network</text><polygon fill="#666666" points="2542.1875,2510.2214,2552.6042,2514.388,2542.1875,2518.5547,2546.3542,2514.388" style="stroke:#666;stroke-width:1.0416666666666667"/><line style="stroke:#666;stroke-width:1.0416666666666667" x1="2116.1458" x2="2548.4375" y1="2514.388" y2="2514.388"/><text fill="#F5F5F5" font-family="&quot;Graphik LCG&quot;" font-size="12.5" lengthAdjust="spacing" textLength="178.125" x="2246.3542" y="2501.2248">Transaction Signature Request</text><polygon fill="#666666" points="2127.6042,2557.194,2117.1875,2561.3607,2127.6042,2565.5273,2123.4375,2561.3607" style="stroke:#666;stroke-width:1.0416666666666667"/><line style="stroke:#666;stroke-width:1.0416666666666667" x1="2121.3542" x2="2553.6458" y1="2561.3607" y2="2561.3607"/><text fill="#F5F5F5" font-family="&quot;Graphik LCG&quot;" font-size="12.5" lengthAdjust="spacing" textLength="226.0417" x="2222.3958" y="2548.1974">Signed transaction by the SFI secret key</text><line style="stroke:#666;stroke-width:1.0416666666666667" x1="2072.3958" x2="2116.1458" y1="2608.3333" y2="2608.3333"/><line style="stroke:#666;stroke-width:1.0416666666666667" x1="2072.3958" x2="2072.3958" y1="2608.3333" y2="2621.875"/><line style="stroke:#666;stroke-width:1.0416666666666667" x1="2072.3958" x2="2115.1042" y1="2621.875" y2="2621.875"/><polygon fill="#666666" points="2106.7708,2617.7083,2117.1875,2621.875,2106.7708,2626.0417,2110.9375,2621.875" style="stroke:#666;stroke-width:1.0416666666666667"/><text fill="#F5F5F5" font-family="&quot;Graphik LCG&quot;" font-size="12.5" lengthAdjust="spacing" textLength="288.5417" x="1819.2708" y="2595.1701">Signing a transaction by the IsSettled central account</text><polygon fill="#666666" points="3114.5833,2664.681,3125,2668.8477,3114.5833,2673.0143,3118.75,2668.8477" style="stroke:#666;stroke-width:1.0416666666666667"/><line style="stroke:#666;stroke-width:1.0416666666666667" x1="2116.1458" x2="3120.8333" y1="2668.8477" y2="2668.8477"/><text fill="#F5F5F5" font-family="&quot;Graphik LCG&quot;" font-size="12.5" lengthAdjust="spacing" textLength="113.5417" x="2564.8438" y="2655.6844">Settlement Request</text><polygon fill="#666666" points="2127.6042,2711.6536,2117.1875,2715.8203,2127.6042,2719.987,2123.4375,2715.8203" style="stroke:#666;stroke-width:1.0416666666666667"/><line style="stroke:#666;stroke-width:1.0416666666666667" x1="2121.3542" x2="3126.0417" y1="2715.8203" y2="2715.8203"/><text fill="#F5F5F5" font-family="&quot;Graphik LCG&quot;" font-size="12.5" lengthAdjust="spacing" textLength="263.5417" x="2489.8438" y="2702.6571">Transaction Identifier in the Distributed Ledger</text><line style="stroke:#666;stroke-width:1.0416666666666667" x1="2072.3958" x2="2116.1458" y1="2762.793" y2="2762.793"/><line style="stroke:#666;stroke-width:1.0416666666666667" x1="2072.3958" x2="2072.3958" y1="2762.793" y2="2776.3346"/><line style="stroke:#666;stroke-width:1.0416666666666667" x1="2072.3958" x2="2115.1042" y1="2776.3346" y2="2776.3346"/><polygon fill="#666666" points="2106.7708,2772.168,2117.1875,2776.3346,2106.7708,2780.5013,2110.9375,2776.3346" style="stroke:#666;stroke-width:1.0416666666666667"/><text fill="#F5F5F5" font-family="&quot;Graphik LCG&quot;" font-size="12.5" lengthAdjust="spacing" textLength="348.9583" x="1758.8542" y="2749.6297">Changes the status of a previously made payment to “settled”</text><polygon fill="#666666" points="1507.8125,2819.1406,1497.3958,2823.3073,1507.8125,2827.474,1503.6458,2823.3073" style="stroke:#666;stroke-width:1.0416666666666667"/><polygon fill="#666666" points="1666.1458,2819.1406,1676.5625,2823.3073,1666.1458,2827.474,1670.3125,2823.3073" style="stroke:#666;stroke-width:1.0416666666666667"/><line style="stroke:#666;stroke-width:1.0416666666666667" x1="1501.5625" x2="1672.3958" y1="2823.3073" y2="2823.3073"/><text fill="#F5F5F5" font-family="&quot;Graphik LCG&quot;" font-size="12.5" lengthAdjust="spacing" textLength="130.2083" x="1522.3958" y="2810.144">Subscribed to the topic</text><path d="M154.1667,2847.2656 L154.1667,2869.1406 A10.4167,10.4167 0 0 0 164.5833,2879.5573 L544.7917,2879.5573 A10.4167,10.4167 0 0 0 555.2083,2869.1406 L555.2083,2847.2656 L544.7917,2836.849 L164.5833,2836.849 A10.4167,10.4167 0 0 0 154.1667,2847.2656 " fill="url(#g1l0gew5sougag0)" style="stroke:#181818;stroke-width:.5208333333333334"/><path d="M544.7917,2836.849 L544.7917,2842.0573 A5.2083,5.2083 0 0 0 550,2847.2656 L555.2083,2847.2656 L544.7917,2836.849 " fill="url(#g1l0gew5sougag0)" style="stroke:#181818;stroke-width:.5208333333333334"/><text fill="#85C6FF" font-family="&quot;Graphik LCG&quot;" font-size="12.5" lengthAdjust="spacing" textLength="362.5" x="168.75" y="2863.3667">Sends a query to extract a response to the DSO Return Request</text><polygon fill="#666666" points="1483.8542,2950.7813,1494.2708,2954.9479,1483.8542,2959.1146,1488.0208,2954.9479" style="stroke:#666;stroke-width:1.0416666666666667"/><line style="stroke:#666;stroke-width:1.0416666666666667" x1="355.2083" x2="1490.1042" y1="2954.9479" y2="2954.9479"/><text fill="#F5F5F5" font-family="&quot;Graphik LCG&quot;" font-size="12.5" lengthAdjust="spacing" textLength="143.75" x="852.3438" y="2910.3394">GET /gateway/messages</text><text fill="#F5F5F5" font-family="&quot;Graphik LCG&quot;" font-size="12.5" lengthAdjust="spacing" textLength="3.125" x="924.2188" y="2926.062"> </text><text fill="#F5F5F5" font-family="&quot;Graphik LCG&quot;" font-size="12.5" lengthAdjust="spacing" textLength="322.9167" x="764.3229" y="2941.7847">with the “transactions” argument in the query parameters</text><path d="M214.5833,2978.9063 L214.5833,3000.7813 A10.4167,10.4167 0 0 0 225,3011.1979 L484.375,3011.1979 A10.4167,10.4167 0 0 0 494.7917,3000.7813 L494.7917,2978.9063 L484.375,2968.4896 L225,2968.4896 A10.4167,10.4167 0 0 0 214.5833,2978.9063 " fill="url(#g1l0gew5sougag0)" style="stroke:#181818;stroke-width:.5208333333333334"/><path d="M484.375,2968.4896 L484.375,2973.6979 A5.2083,5.2083 0 0 0 489.5833,2978.9063 L494.7917,2978.9063 L484.375,2968.4896 " fill="url(#g1l0gew5sougag0)" style="stroke:#181818;stroke-width:.5208333333333334"/><text fill="#85C6FF" font-family="&quot;Graphik LCG&quot;" font-size="12.5" lengthAdjust="spacing" textLength="241.6667" x="229.1667" y="2995.0073">Gets the transaction history of the payment</text><polygon fill="#666666" points="366.6667,3082.4219,356.25,3086.5885,366.6667,3090.7552,362.5,3086.5885" style="stroke:#666;stroke-width:1.0416666666666667"/><line style="stroke:#666;stroke-width:1.0416666666666667" x1="360.4167" x2="1495.3125" y1="3086.5885" y2="3086.5885"/><text fill="#F5F5F5" font-family="&quot;Graphik LCG&quot;" font-size="12.5" lengthAdjust="spacing" textLength="60.4167" x="894.0104" y="3041.98">Response</text><text fill="#F5F5F5" font-family="&quot;Graphik LCG&quot;" font-size="12.5" lengthAdjust="spacing" textLength="3.125" x="924.2188" y="3057.7026"> </text><text fill="#F5F5F5" font-family="&quot;Graphik LCG&quot;" font-size="12.5" lengthAdjust="spacing" textLength="244.7917" x="803.3854" y="3073.4253">Payload: {Transaction IDs from the Ledger}</text></g></svg>